<svg width="22" height="24" viewBox="0 0 22 24" fill="none" xmlns="http://www.w3.org/2000/svg">
<g id="Icon" clip-path="url(#clip0_4370_2002)">
<g id="Group">
<path id="Vector" d="M6.90268 20.8122C5.39493 20.0839 4.0977 18.9661 3.1383 17.5684C2.17889 16.1708 1.59026 14.5413 1.43018 12.84H0.0551758C0.522676 18.6311 5.24351 23.1813 11.0093 23.1813L11.6143 23.1531L8.12184 19.5712L6.90268 20.8122ZM7.71851 14.6826C7.54434 14.6826 7.37934 14.6544 7.24184 14.6074C7.10493 14.5608 6.97973 14.4837 6.87518 14.3818C6.77434 14.2878 6.69184 14.175 6.63684 14.0339C6.58184 13.9023 6.55434 13.7519 6.55434 13.5921H5.36268C5.36268 13.9305 5.42684 14.2314 5.55518 14.4852C5.68351 14.739 5.85768 14.9553 6.06851 15.1339C6.28851 15.3031 6.53601 15.4347 6.82018 15.5193C7.09518 15.6133 7.38851 15.6603 7.70018 15.6603C8.03934 15.6603 8.36018 15.6133 8.64434 15.5193C8.93768 15.4253 9.19434 15.2843 9.40518 15.1057C9.61601 14.927 9.79018 14.7014 9.90934 14.4288C10.0285 14.1561 10.0927 13.8553 10.0927 13.5169C10.0927 13.3382 10.0743 13.1596 10.0285 12.9904C9.98502 12.8196 9.91374 12.6575 9.81768 12.5109C9.72601 12.3605 9.59768 12.2289 9.45101 12.1067C9.29518 11.9845 9.11184 11.8905 8.89184 11.8152C9.22318 11.6638 9.50601 11.4194 9.70768 11.1102C9.79934 10.9691 9.86351 10.8281 9.90934 10.6777C9.95518 10.5273 9.97351 10.3769 9.97351 10.2264C9.97351 9.888 9.91851 9.58716 9.80851 9.32393C9.70658 9.07184 9.54609 8.84914 9.34101 8.67524C9.15767 8.49662 8.91018 8.365 8.63518 8.27099C8.35101 8.18638 8.03934 8.13938 7.70018 8.13938C7.37018 8.13938 7.06768 8.18638 6.78351 8.28979C6.50851 8.39321 6.26101 8.53423 6.05934 8.71285C5.86684 8.89147 5.71101 9.0983 5.59184 9.34273C5.48184 9.58716 5.42684 9.8504 5.42684 10.1418H6.61851C6.61851 9.98201 6.64601 9.84099 6.70101 9.71878C6.75279 9.59579 6.83115 9.48649 6.93018 9.39914C7.03101 9.31453 7.14101 9.23932 7.27851 9.19231C7.41601 9.1453 7.55351 9.1171 7.71851 9.1171C8.08518 9.1171 8.36018 9.21111 8.53434 9.40854C8.70851 9.59656 8.80018 9.8692 8.80018 10.217C8.80018 10.3863 8.77268 10.5367 8.72684 10.6777C8.68126 10.8121 8.60227 10.932 8.49768 11.0255C8.39684 11.1196 8.26851 11.1948 8.12184 11.2512C7.97518 11.3076 7.79184 11.3358 7.59018 11.3358H6.88434V12.3041H7.59018C7.79184 12.3041 7.97518 12.3229 8.14018 12.3699C8.30518 12.4169 8.44268 12.4921 8.55268 12.5861C8.66268 12.6896 8.75434 12.8118 8.81851 12.9622C8.88268 13.1126 8.91018 13.2912 8.91018 13.4981C8.91018 13.8835 8.80018 14.175 8.58934 14.3724C8.37851 14.5886 8.08518 14.6826 7.71851 14.6826ZM15.556 9.1171C15.2627 8.80686 14.9143 8.56243 14.511 8.39321C14.1077 8.22399 13.6585 8.13938 13.1635 8.13938H11.0002V15.6603H13.1085C13.6127 15.6603 14.0802 15.5757 14.4927 15.4065C14.9052 15.2373 15.2627 15.0023 15.556 14.692C15.8493 14.3818 16.0785 14.0057 16.2343 13.5733C16.3902 13.1314 16.4727 12.6426 16.4727 12.0973V11.7212C16.4727 11.176 16.3902 10.6871 16.2343 10.2452C16.0893 9.82386 15.858 9.43919 15.556 9.1171ZM15.1985 12.0879C15.1985 12.4827 15.1527 12.8306 15.0702 13.1502C14.9785 13.4605 14.8502 13.7331 14.676 13.9493C14.5018 14.1656 14.2818 14.3348 14.0252 14.4476C13.7593 14.5604 13.4568 14.6168 13.1177 14.6168H12.2835V9.19231H13.1727C13.8327 9.19231 14.3368 9.40854 14.676 9.84099C15.0243 10.2734 15.1985 10.8939 15.1985 11.7118V12.0879ZM11.0093 0.618408L10.4043 0.646612L13.8968 4.22847L15.116 2.97811C18.1135 4.4353 20.2585 7.41548 20.5793 10.9503H21.9543C21.496 5.16859 16.7752 0.618408 11.0093 0.618408Z" fill="#FFD51C"/>
</g>
</g>
<defs>
<clipPath id="clip0_4370_2002">
<rect width="22" height="22.5629" fill="white" transform="translate(0 0.618408)"/>
</clipPath>
</defs>
</svg>
