<svg width="23" height="60" viewBox="0 0 23 60" fill="none" xmlns="http://www.w3.org/2000/svg">
<path d="M1.4926 0.747123C22.3794 8.86456 28.3666 34.2398 17.7857 52.2233C18.5788 51.7927 19.3702 51.3591 20.1646 50.9304C21.3926 50.2671 23.1331 51.7888 22.1845 53.0356C20.2287 55.6061 15.2924 60.4267 11.5294 58.7372C10.1992 58.1403 9.84225 56.9403 9.51688 55.6429C8.714 52.4424 8.27584 48.9383 8.06351 45.6459C7.96695 44.1401 10.2417 43.9707 10.6162 45.3495C11.3646 48.1023 11.1951 51.6662 12.2873 54.2381C12.3474 54.3806 12.4141 54.506 12.4831 54.6238C18.9492 46.7326 21.7932 36.0503 19.5624 26.0153C17.2333 15.5344 10.0445 7.4238 0.811158 2.32732C-0.028756 1.8638 0.567772 0.387644 1.4926 0.747123Z" fill="black"/>
</svg>
