<svg width="21" height="21" viewBox="0 0 21 21" fill="none" xmlns="http://www.w3.org/2000/svg">
<path d="M20.3849 10.3774C20.3898 10.7712 20.238 11.1508 19.963 11.4326C19.6881 11.7145 19.3124 11.8756 18.9186 11.8806L8.11076 12.0156L8.1715 16.83C8.17258 16.9275 8.15443 17.0244 8.11807 17.1149C8.08171 17.2055 8.02786 17.288 7.9596 17.3577C7.89189 17.4277 7.81079 17.4833 7.72114 17.5213C7.58614 17.5793 7.43697 17.596 7.2925 17.5692C7.14804 17.5424 7.01477 17.4733 6.90958 17.3707L0.531333 11.1487C0.390365 11.0112 0.309799 10.8233 0.307357 10.6264C0.304916 10.4295 0.3808 10.2396 0.518315 10.0987L6.74034 3.72042C6.84283 3.61497 6.97433 3.54233 7.11816 3.51171C7.26199 3.48109 7.41167 3.49386 7.54823 3.54841C7.68479 3.60296 7.80208 3.69683 7.88523 3.81812C7.96838 3.93941 8.01364 4.08266 8.01527 4.2297L8.07391 9.04407L18.8818 8.91112C19.2756 8.9063 19.6551 9.05806 19.937 9.33303C20.2189 9.60801 20.38 9.98368 20.3849 10.3774Z" fill="#1C1C1C"/>
</svg>
