<svg width="27" height="31" viewBox="0 0 27 31" fill="none" xmlns="http://www.w3.org/2000/svg">
<path d="M11.8262 5.73383C11.8262 5.22693 12.0276 4.74079 12.386 4.38236C12.7445 4.02392 13.2306 3.82256 13.7375 3.82256C14.2444 3.82256 14.7305 4.02392 15.089 4.38236C15.4474 4.74079 15.6488 5.22693 15.6488 5.73383V7.64511H19.4713V5.73383C19.4713 4.21313 18.8672 2.7547 17.7919 1.6794C16.7166 0.604099 15.2582 0 13.7375 0C12.2168 0 10.7584 0.604099 9.68306 1.6794C8.60776 2.7547 8.00366 4.21313 8.00366 5.73383V7.64511H11.8262V5.73383Z" fill="black"/>
<path d="M26.8679 26.3355L25.1936 11.2574C25.1418 10.7898 24.9194 10.3576 24.5688 10.0438C24.2183 9.7299 23.7643 9.55636 23.2938 9.5564H4.181C3.71047 9.55636 3.25647 9.7299 2.90593 10.0438C2.55539 10.3576 2.33294 10.7898 2.28119 11.2574L0.606905 26.3355C0.547511 26.8697 0.601447 27.4104 0.765192 27.9224C0.928937 28.4344 1.19881 28.906 1.55719 29.3066C1.91557 29.7072 2.35441 30.0277 2.84505 30.2472C3.3357 30.4667 3.86711 30.5803 4.40462 30.5805H23.0702C23.6077 30.5803 24.1391 30.4667 24.6297 30.2472C25.1204 30.0277 25.5592 29.7072 25.9176 29.3066C26.276 28.906 26.5458 28.4344 26.7096 27.9224C26.8733 27.4104 26.9273 26.8697 26.8679 26.3355Z" fill="black"/>
</svg>
