<svg width="31" height="31" viewBox="0 0 31 31" fill="none" xmlns="http://www.w3.org/2000/svg">
<g id="Battery">
<g id="Group">
<path id="Vector" d="M20.3438 2.90625H10.6562V0.96875C10.6562 0.711821 10.7583 0.465416 10.94 0.28374C11.1217 0.102064 11.3681 0 11.625 0L19.375 0C19.6319 0 19.8783 0.102064 20.06 0.28374C20.2417 0.465416 20.3438 0.711821 20.3438 0.96875V2.90625Z" fill="#1C1C1C"/>
<path id="Vector_2" d="M24.2188 4.84375H6.78125C6.26739 4.84375 5.77458 5.04788 5.41123 5.41123C5.04788 5.77458 4.84375 6.26739 4.84375 6.78125V29.0625C4.84375 29.5764 5.04788 30.0692 5.41123 30.4325C5.77458 30.7959 6.26739 31 6.78125 31H24.2188C24.7326 31 25.2254 30.7959 25.5888 30.4325C25.9521 30.0692 26.1562 29.5764 26.1562 29.0625V6.78125C26.1562 6.26739 25.9521 5.77458 25.5888 5.41123C25.2254 5.04788 24.7326 4.84375 24.2188 4.84375ZM21.3125 26.1562H9.6875V24.2188H21.3125V26.1562ZM21.3125 21.3125H9.6875V19.375H21.3125V21.3125ZM21.3125 16.4688H9.6875V14.5312H21.3125V16.4688Z" fill="#1C1C1C"/>
</g>
</g>
</svg>
