<svg width="101" height="101" viewBox="0 0 101 101" fill="none" xmlns="http://www.w3.org/2000/svg">
<rect x="4" width="93" height="93" rx="10" fill="url(#paint0_linear_419_549)"/>
<mask id="mask0_419_549" style="mask-type:alpha" maskUnits="userSpaceOnUse" x="4" y="0" width="93" height="93">
<rect x="4" width="93" height="93" rx="10" fill="#F0E8E0"/>
</mask>
<g mask="url(#mask0_419_549)">
<path d="M66.5 25.9375H35.5C34.9861 25.9375 34.4933 26.1416 34.13 26.505C33.7666 26.8683 33.5625 27.3611 33.5625 27.875V37.5625H68.4375V27.875C68.4375 27.3611 68.2334 26.8683 67.87 26.505C67.5067 26.1416 67.0139 25.9375 66.5 25.9375Z" fill="#FFD51C"/>
<path d="M82 41.4375H20C17.9446 41.4375 15.9733 42.254 14.5199 43.7074C13.0665 45.1608 12.25 47.1321 12.25 49.1875V138.312C12.25 140.368 13.0665 142.339 14.5199 143.793C15.9733 145.246 17.9446 146.062 20 146.062H82C84.0554 146.062 86.0267 145.246 87.4801 143.793C88.9335 142.339 89.75 140.368 89.75 138.312V49.1875C89.75 47.1321 88.9335 45.1608 87.4801 43.7074C86.0267 42.254 84.0554 41.4375 82 41.4375ZM74.25 128.625C74.25 129.139 74.0459 129.632 73.6825 129.995C73.3192 130.358 72.8264 130.562 72.3125 130.562H29.6875C29.1736 130.562 28.6808 130.358 28.3175 129.995C27.9541 129.632 27.75 129.139 27.75 128.625V120.875C27.75 120.361 27.9541 119.868 28.3175 119.505C28.6808 119.142 29.1736 118.938 29.6875 118.938H72.3125C72.8264 118.938 73.3192 119.142 73.6825 119.505C74.0459 119.868 74.25 120.361 74.25 120.875V128.625ZM74.25 105.375C74.25 105.889 74.0459 106.382 73.6825 106.745C73.3192 107.108 72.8264 107.312 72.3125 107.312H29.6875C29.1736 107.312 28.6808 107.108 28.3175 106.745C27.9541 106.382 27.75 105.889 27.75 105.375V97.625C27.75 97.1111 27.9541 96.6183 28.3175 96.255C28.6808 95.8916 29.1736 95.6875 29.6875 95.6875H72.3125C72.8264 95.6875 73.3192 95.8916 73.6825 96.255C74.0459 96.6183 74.25 97.1111 74.25 97.625V105.375Z" fill="#FFD51C"/>
<ellipse cx="37.5" cy="78" rx="11.5" ry="11" fill="white"/>
<circle cx="41.5" cy="77.5" r="6.5" fill="#1C1C1C"/>
<ellipse cx="66.5" cy="78" rx="11.5" ry="11" fill="white"/>
<circle cx="63.5" cy="77.5" r="6.5" fill="#1C1C1C"/>
</g>
<defs>
<linearGradient id="paint0_linear_419_549" x1="50.5" y1="0" x2="50.5" y2="93" gradientUnits="userSpaceOnUse">
<stop stop-color="#F0E8E0"/>
<stop offset="0.39416" stop-color="#FBDA53" stop-opacity="0.27"/>
<stop offset="1" stop-color="#FFD51C" stop-opacity="0"/>
</linearGradient>
</defs>
</svg>
