<svg width="24" height="24" viewBox="0 0 24 24" fill="none" xmlns="http://www.w3.org/2000/svg">
<rect width="24" height="24" rx="3" fill="#FBF3EA"/>
<path d="M6.75 17.2479C6.75 17.7121 6.93437 18.1572 7.26256 18.4854C7.59075 18.8135 8.03587 18.9979 8.5 18.9979H15.5C15.9641 18.9979 16.4092 18.8135 16.7374 18.4854C17.0656 18.1572 17.25 17.7121 17.25 17.2479V13.7479H6.75V17.2479Z" fill="black"/>
<path d="M18.5625 9.3728H16.4783L14.5323 5.48167C14.4274 5.27595 14.2456 5.12 14.0263 5.04779C13.807 4.97559 13.568 4.99298 13.3615 5.09619C13.1549 5.1994 12.9976 5.38005 12.9237 5.59878C12.8497 5.81752 12.8653 6.0566 12.9669 6.26392L14.5217 9.3728H9.47825L11.0322 6.26392C11.0847 6.16103 11.1162 6.04878 11.125 5.93363C11.1339 5.81849 11.1198 5.70274 11.0837 5.59305C11.0476 5.48336 10.9901 5.38191 10.9146 5.29454C10.8391 5.20717 10.747 5.13561 10.6437 5.08399C10.5404 5.03237 10.428 5.0017 10.3127 4.99377C10.1975 4.98583 10.0819 5.00078 9.97249 5.03775C9.86309 5.07472 9.76209 5.13298 9.67531 5.20917C9.58853 5.28536 9.51769 5.37798 9.46688 5.48167L7.52175 9.3728H5.4375C5.32147 9.3728 5.21019 9.41889 5.12814 9.50094C5.04609 9.58299 5 9.69427 5 9.8103V11.5603C5 11.6763 5.04609 11.7876 5.12814 11.8697C5.21019 11.9517 5.32147 11.9978 5.4375 11.9978H18.5625C18.6785 11.9978 18.7898 11.9517 18.8719 11.8697C18.9539 11.7876 19 11.6763 19 11.5603V9.8103C19 9.69427 18.9539 9.58299 18.8719 9.50094C18.7898 9.41889 18.6785 9.3728 18.5625 9.3728Z" fill="black"/>
</svg>
