<svg width="16" height="16" viewBox="0 0 16 16" fill="none" xmlns="http://www.w3.org/2000/svg">
<g clip-path="url(#clip0_3055_5385)">
<path d="M10.9411 7.42697C10.5771 7.06942 10.086 6.87099 9.57582 6.87531C9.0656 6.87962 8.57797 7.08632 8.22008 7.44997C8.13891 7.53294 8.06529 7.62296 8.00008 7.71897C7.71393 7.29676 7.27184 7.00545 6.77098 6.90906C6.27012 6.81268 5.75149 6.91911 5.32908 7.20497C5.23271 7.27087 5.14235 7.34516 5.05908 7.42697C4.88395 7.59933 4.74449 7.80449 4.64866 8.03075C4.55283 8.257 4.5025 8.49992 4.50055 8.74562C4.4986 8.99133 4.54506 9.23502 4.63729 9.46276C4.72952 9.69051 4.86571 9.89786 5.03808 10.073L5.05908 10.094L8.00008 13L10.9411 10.094C11.1162 9.92162 11.2557 9.71646 11.3515 9.4902C11.4473 9.26395 11.4977 9.02103 11.4996 8.77532C11.5016 8.52962 11.4551 8.28593 11.3629 8.05819C11.2706 7.83044 11.1344 7.62309 10.9621 7.44797L10.9411 7.42697Z" fill="black"/>
<path d="M15 2H13V0H10V2H6V0H3V2H1C0.734784 2 0.48043 2.10536 0.292893 2.29289C0.105357 2.48043 0 2.73478 0 3L0 15C0 15.2652 0.105357 15.5196 0.292893 15.7071C0.48043 15.8946 0.734784 16 1 16H15C15.2652 16 15.5196 15.8946 15.7071 15.7071C15.8946 15.5196 16 15.2652 16 15V3C16 2.73478 15.8946 2.48043 15.7071 2.29289C15.5196 2.10536 15.2652 2 15 2ZM14 14H2V5H14V14Z" fill="black"/>
</g>
<defs>
<clipPath id="clip0_3055_5385">
<rect width="16" height="16" fill="white"/>
</clipPath>
</defs>
</svg>
