<svg width="16" height="16" viewBox="0 0 16 16" fill="none" xmlns="http://www.w3.org/2000/svg">
<g clip-path="url(#clip0_3055_5397)">
<path d="M14.4101 2.94798C12.1131 -0.183023 7.14111 -0.946023 3.76511 1.32098C0.439107 3.55298 -0.694893 7.96198 1.12311 11.576C2.51611 14.344 5.36711 15.999 8.35011 15.998C9.20711 15.998 10.0771 15.861 10.9231 15.575C11.4461 15.398 11.7271 14.83 11.5501 14.307C11.3741 13.784 10.8081 13.502 10.2821 13.68C7.42511 14.647 4.25711 13.354 2.91011 10.677C1.56511 8.00598 2.43111 4.62498 4.88011 2.98098C7.59111 1.16098 11.2981 2.08498 12.7971 4.12998C13.8441 5.55798 14.0391 7.73598 13.2411 9.08898C12.7581 9.91298 12.1121 10.084 11.7991 9.99698C11.6431 9.95498 11.6311 9.88498 11.6311 9.78998V4.92898C11.6311 4.37698 11.1841 3.92898 10.6311 3.92898C10.2291 3.92898 9.88711 4.16998 9.72811 4.51198C9.18211 4.18298 8.55911 3.97998 7.88711 3.97998C5.82911 3.97998 4.15511 5.73998 4.15511 7.90298C4.15511 10.066 5.83011 11.826 7.88711 11.826C8.69311 11.826 9.43511 11.55 10.0451 11.092C10.3321 11.488 10.7531 11.786 11.2731 11.928C12.3951 12.233 13.9731 11.788 14.9641 10.105C16.1561 8.08198 15.9191 5.00498 14.4101 2.94798ZM7.88711 9.82598C6.93211 9.82598 6.15511 8.96298 6.15511 7.90298C6.15511 6.84298 6.93211 5.97998 7.88711 5.97998C8.84211 5.97998 9.61911 6.84298 9.61911 7.90298C9.61911 8.96298 8.84211 9.82598 7.88711 9.82598Z" fill="black"/>
</g>
<defs>
<clipPath id="clip0_3055_5397">
<rect width="16" height="16" fill="white"/>
</clipPath>
</defs>
</svg>
