<svg width="66" height="66" viewBox="0 0 66 66" fill="none" xmlns="http://www.w3.org/2000/svg">
<path d="M8.25 30.25H0V35.75H8.25V30.25Z" fill="#FFD51C"/>
<path d="M11.6087 7.72051L7.7196 11.6096L13.5532 17.4431L17.4422 13.5541L11.6087 7.72051Z" fill="#FFD51C"/>
<path d="M35.75 0H30.25V8.25H35.75V0Z" fill="#FFD51C"/>
<path d="M54.39 7.72014L48.5564 13.5537L52.4454 17.4428L58.279 11.6092L54.39 7.72014Z" fill="#FFD51C"/>
<path d="M66 30.25H57.75V35.75H66V30.25Z" fill="#FFD51C"/>
<path d="M52.4461 48.5569L48.557 52.4459L54.3906 58.2795L58.2796 54.3904L52.4461 48.5569Z" fill="#FFD51C"/>
<path d="M35.75 57.75H30.25V66H35.75V57.75Z" fill="#FFD51C"/>
<path d="M13.5535 48.5573L7.71997 54.3909L11.609 58.2799L17.4426 52.4463L13.5535 48.5573Z" fill="#FFD51C"/>
<path d="M33 52.25C43.6315 52.25 52.25 43.6315 52.25 33C52.25 22.3685 43.6315 13.75 33 13.75C22.3685 13.75 13.75 22.3685 13.75 33C13.75 43.6315 22.3685 52.25 33 52.25Z" fill="#FFD51C"/>
</svg>
