<svg width="22" height="22" viewBox="0 0 22 22" fill="none" xmlns="http://www.w3.org/2000/svg">
<g clip-path="url(#clip0_2739_10613)">
<path d="M21.0083 10.7893C21.008 8.82473 20.4448 6.90134 19.3854 5.24687C18.3259 3.5924 16.8146 2.27615 15.0303 1.45392C13.246 0.631703 11.2635 0.33795 9.31746 0.607442C7.37141 0.876934 5.54334 1.69838 4.04964 2.97455C2.55595 4.25071 1.45919 5.92814 0.889204 7.80825C0.319221 9.68837 0.299884 11.6924 0.833482 13.5832C1.36708 15.474 2.43127 17.1722 3.90006 18.477C5.36885 19.7817 7.18074 20.6383 9.12122 20.9453V13.7609H6.51127V10.7893H9.12122V8.52402C9.12122 5.9476 10.6562 4.5244 13.0042 4.5244C13.7752 4.53511 14.5445 4.60218 15.3057 4.72509V7.25503H14.0095C13.6189 7.20336 13.2239 7.30884 12.9111 7.5483C12.5983 7.78775 12.3933 8.14159 12.3413 8.53207C12.327 8.6413 12.3248 8.75177 12.3346 8.8615V10.7893H15.1859L14.73 13.7609H12.3342V20.9453C14.7525 20.5627 16.9549 19.3296 18.5451 17.4678C20.1352 15.606 21.0087 13.2378 21.0083 10.7893Z" fill="#1C1C1C"/>
</g>
<defs>
<clipPath id="clip0_2739_10613">
<rect width="21.4553" height="21.4553" fill="white"/>
</clipPath>
</defs>
</svg>
