<svg width="20" height="20" viewBox="0 0 20 20" fill="none" xmlns="http://www.w3.org/2000/svg">
<g id="logo-instagram 1" clip-path="url(#clip0_2739_10616)">
<g id="Group">
<path id="Vector" d="M9.84202 2.03221C12.3483 2.03221 12.6451 2.0416 13.6351 2.08675C14.2304 2.09403 14.82 2.20334 15.3784 2.40992C15.7833 2.56607 16.151 2.80527 16.4578 3.11213C16.7647 3.41899 17.0039 3.7867 17.1601 4.1916C17.3666 4.74994 17.4759 5.33956 17.4832 5.93484C17.5279 6.92492 17.5378 7.22171 17.5378 9.72796C17.5378 12.2342 17.5284 12.531 17.4832 13.5211C17.4759 14.1164 17.3666 14.706 17.1601 15.2643C17.0039 15.6692 16.7647 16.0369 16.4578 16.3438C16.151 16.6507 15.7833 16.8899 15.3784 17.046C14.82 17.2526 14.2304 17.3619 13.6351 17.3692C12.6455 17.4139 12.3487 17.4237 9.84202 17.4237C7.33532 17.4237 7.03852 17.4143 6.0489 17.3692C5.45362 17.3619 4.86399 17.2526 4.30565 17.046C3.90076 16.8899 3.53304 16.6507 3.22619 16.3438C2.91933 16.0369 2.68012 15.6692 2.52397 15.2643C2.31739 14.706 2.20809 14.1164 2.2008 13.5211C2.1561 12.531 2.14627 12.2342 2.14627 9.72796C2.14627 7.22171 2.15565 6.92492 2.2008 5.93484C2.20809 5.33956 2.31739 4.74994 2.52397 4.1916C2.68012 3.7867 2.91933 3.41899 3.22619 3.11213C3.53304 2.80527 3.90076 2.56607 4.30565 2.40992C4.86399 2.20334 5.45362 2.09403 6.0489 2.08675C7.03897 2.04205 7.33577 2.03221 9.84202 2.03221ZM9.84202 0.34082C7.2942 0.34082 6.97326 0.351548 5.97202 0.39714C5.19294 0.412636 4.42214 0.560147 3.69239 0.833398C3.06639 1.06926 2.49938 1.43887 2.03095 1.91644C1.55294 2.38505 1.18301 2.95238 0.947006 3.57878C0.673755 4.30853 0.526245 5.07933 0.510748 5.85841C0.46605 6.85876 0.455322 7.1797 0.455322 9.72751C0.455322 12.2753 0.46605 12.5963 0.511642 13.5975C0.527138 14.3766 0.674649 15.1474 0.9479 15.8771C1.18364 16.5035 1.55326 17.0708 2.03095 17.5395C2.49964 18.0172 3.06696 18.3868 3.69328 18.6225C4.42303 18.8958 5.19384 19.0433 5.97291 19.0588C6.97416 19.1035 7.29375 19.1151 9.84291 19.1151C12.3921 19.1151 12.7117 19.1044 13.7129 19.0588C14.492 19.0433 15.2628 18.8958 15.9925 18.6225C16.6159 18.3809 17.182 18.0118 17.6545 17.539C18.1271 17.0661 18.4958 16.4998 18.737 15.8762C19.0103 15.1465 19.1578 14.3757 19.1733 13.5966C19.218 12.5963 19.2287 12.2753 19.2287 9.72751C19.2287 7.1797 19.218 6.85876 19.1724 5.85751C19.1569 5.07844 19.0094 4.30764 18.7361 3.57789C18.5004 2.95156 18.1308 2.38425 17.6531 1.91555C17.1844 1.43787 16.6171 1.06825 15.9907 0.832504C15.261 0.559253 14.4902 0.411743 13.7111 0.396247C12.7108 0.351548 12.3898 0.34082 9.84202 0.34082Z" fill="#1C1C1C"/>
<path id="Vector_2" d="M9.84202 4.90723C8.88866 4.90723 7.9567 5.18993 7.16401 5.71959C6.37132 6.24925 5.75349 7.00208 5.38865 7.88287C5.02382 8.76367 4.92836 9.73286 5.11435 10.6679C5.30034 11.603 5.75943 12.4618 6.43356 13.136C7.10769 13.8101 7.96659 14.2692 8.90163 14.4552C9.83667 14.6412 10.8059 14.5457 11.6867 14.1809C12.5675 13.816 13.3203 13.1982 13.8499 12.4055C14.3796 11.6128 14.6623 10.6809 14.6623 9.72752C14.6623 8.4491 14.1545 7.22304 13.2505 6.31906C12.3465 5.41508 11.1204 4.90723 9.84202 4.90723ZM9.84202 12.8564C9.22318 12.8564 8.61824 12.6729 8.1037 12.3291C7.58915 11.9853 7.18812 11.4966 6.9513 10.9249C6.71448 10.3532 6.65252 9.72405 6.77324 9.1171C6.89397 8.51015 7.19197 7.95264 7.62956 7.51505C8.06714 7.07747 8.62466 6.77947 9.2316 6.65874C9.83855 6.53801 10.4677 6.59997 11.0394 6.83679C11.6111 7.07361 12.0998 7.47465 12.4436 7.98919C12.7874 8.50374 12.9709 9.10868 12.9709 9.72752C12.9709 10.5574 12.6413 11.3532 12.0545 11.94C11.4677 12.5268 10.6719 12.8564 9.84202 12.8564Z" fill="#1C1C1C"/>
<path id="Vector_3" d="M14.8527 5.84314C15.4748 5.84314 15.9791 5.33883 15.9791 4.71674C15.9791 4.09464 15.4748 3.59033 14.8527 3.59033C14.2306 3.59033 13.7263 4.09464 13.7263 4.71674C13.7263 5.33883 14.2306 5.84314 14.8527 5.84314Z" fill="#1C1C1C"/>
</g>
</g>
<defs>
<clipPath id="clip0_2739_10616">
<rect width="18.7734" height="18.7734" fill="white" transform="translate(0.455322 0.34082)"/>
</clipPath>
</defs>
</svg>
