<svg width="19" height="19" viewBox="0 0 19 19" fill="none" xmlns="http://www.w3.org/2000/svg">
<g id="Group">
<path id="Vector" d="M19.002 2.12305C19.002 1.01848 18.1066 0.123053 17.002 0.123052L2.22864 0.123048C1.12407 0.123047 0.228638 1.01848 0.228638 2.12305V16.1142C0.228638 17.2188 1.12407 18.1142 2.22864 18.1142H17.002C18.1066 18.1142 19.002 17.2188 19.002 16.1142V2.12305ZM5.78245 15.3373H3.00555V6.38084H5.78245V15.3373ZM4.41356 5.1684C3.514 5.1684 2.81 4.46439 2.81 3.56483C2.81 2.66528 3.514 1.96127 4.41356 1.96127C5.31312 1.96127 6.01712 2.66528 6.01712 3.56483C6.01712 4.42528 5.31312 5.1684 4.41356 5.1684ZM16.2252 15.3373H13.4483V10.996C13.4483 9.93996 13.4483 8.61018 12.0011 8.61018C10.554 8.61018 10.3194 9.74441 10.3194 10.9177V15.3373H7.54246V6.38084H10.202V7.59329H10.2411C10.5931 6.88929 11.5318 6.14618 12.8616 6.14618C15.6776 6.14618 16.186 7.9844 16.186 10.4093V15.3373H16.2252Z" fill="#1C1C1C"/>
</g>
</svg>
