<svg width="93" height="93" viewBox="0 0 93 93" fill="none" xmlns="http://www.w3.org/2000/svg">
<rect width="93" height="93" rx="10" fill="url(#paint0_linear_2460_2501)"/>
<path d="M13.0002 48H81.0002V93H13.0002V48Z" fill="#FFD51C"/>
<path d="M23 62V81" stroke="#FFF5C9" stroke-width="3" stroke-linecap="round"/>
<path d="M13.0002 30C13.0002 24.4772 17.4774 20 23.0002 20H71.0002C76.5231 20 81.0002 24.4772 81.0002 30V45H13.0002V30Z" fill="#FFD51C"/>
<path d="M45.0002 44.9999C45.0002 38.9248 39.8515 33.9999 33.5002 33.9999C27.149 33.9999 22.0002 38.9248 22.0002 44.9999C22.0002 44.9999 27.149 45 33.5002 45C39.8515 45 45.0002 44.9999 45.0002 44.9999Z" fill="white"/>
<path d="M42.0002 44.9998C42.0002 41.4099 39.0901 38.9999 35.5002 38.9999C31.9104 38.9999 29.0002 41.41 29.0002 44.9999C29.0002 44.9999 31.9104 45 35.5002 45C39.0901 45 42.0002 44.9998 42.0002 44.9998Z" fill="#1C1C1C"/>
<path d="M72.0002 44.9999C72.0002 38.9248 66.8515 33.9999 60.5002 33.9999C54.149 33.9999 49.0002 38.9248 49.0002 44.9999C49.0002 44.9999 54.149 45 60.5002 45C66.8515 45 72.0002 44.9999 72.0002 44.9999Z" fill="white"/>
<path d="M69.0002 44.9998C69.0002 41.4099 66.0901 38.9999 62.5002 38.9999C58.9104 38.9999 56.0002 41.41 56.0002 44.9999C56.0002 44.9999 58.9104 45 62.5002 45C66.0901 45 69.0002 44.9998 69.0002 44.9998Z" fill="#1C1C1C"/>
<defs>
<linearGradient id="paint0_linear_2460_2501" x1="46.5" y1="0" x2="46.5" y2="93" gradientUnits="userSpaceOnUse">
<stop stop-color="#F0E8E0"/>
<stop offset="0.39416" stop-color="#FBDA53" stop-opacity="0.27"/>
<stop offset="1" stop-color="#FFD51C" stop-opacity="0"/>
</linearGradient>
</defs>
</svg>
