<svg width="93" height="47" viewBox="0 0 93 47" fill="none" xmlns="http://www.w3.org/2000/svg">
<g id="Sunity">
<rect id="Rectangle 53" x="14" y="23" width="67" height="17" rx="5" fill="#FFD51C"/>
<path id="Line 1" d="M28 34C28 34 30.5714 31 34 31C37.4286 31 40 34 40 34" stroke="#1C1C1C" stroke-width="3"/>
<path id="Line 2" d="M55 34C55 34 57.5714 31 61 31C64.4286 31 67 34 67 34" stroke="#1C1C1C" stroke-width="3"/>
<path id="Line 6" d="M68.5 7.66667C69.9728 7.66667 71.1667 6.47276 71.1667 5C71.1667 3.52724 69.9728 2.33333 68.5 2.33333C67.0272 2.33333 65.8333 3.52724 65.8333 5C65.8333 6.47276 67.0272 7.66667 68.5 7.66667ZM69 23L69 5L68 5L68 23L69 23Z" fill="#FFD51C"/>
<rect id="Rectangle 54" x="25" y="41" width="6" height="3" fill="#FFD51C"/>
<rect id="Rectangle 55" x="63" y="41" width="6" height="3" fill="#FFD51C"/>
</g>
</svg>
