<svg width="93" height="93" viewBox="0 0 93 93" fill="none" xmlns="http://www.w3.org/2000/svg">
<rect width="93" height="93" rx="10" fill="url(#paint0_linear_446_4784)"/>
<rect x="21" y="32" width="52" height="29" fill="#FFD51C"/>
<path d="M75.5 63.3334V31.6667C75.5 30.407 74.9996 29.1988 74.1088 28.308C73.218 27.4172 72.0098 26.9167 70.75 26.9167H23.25C21.9902 26.9167 20.782 27.4172 19.8912 28.308C19.0004 29.1988 18.5 30.407 18.5 31.6667V63.3334H75.5ZM21.6667 60.1667V33.2501H72.3333V60.1667H21.6667Z" fill="#FFD51C"/>
<path d="M75.6868 66.5H18.3132L11.4589 80.2085C11.0967 80.9327 10.9256 81.7374 10.9619 82.5463C10.9982 83.3552 11.2407 84.1414 11.6664 84.8302C12.092 85.519 12.6866 86.0876 13.3938 86.4819C14.101 86.8763 14.8973 87.0833 15.707 87.0833H78.293C79.1027 87.0833 79.899 86.8763 80.6061 86.4819C81.3133 86.0876 81.908 85.519 82.3336 84.8302C82.7593 84.1414 83.0017 83.3552 83.038 82.5463C83.0744 81.7374 82.9033 80.9327 82.5411 80.2085L75.6868 66.5Z" fill="#FFD51C"/>
<path d="M32 45C32 45 34.5714 48 38 48C41.4286 48 44 45 44 45" stroke="#1C1C1C" stroke-width="3"/>
<path d="M51 45C51 45 53.5714 48 57 48C60.4286 48 63 45 63 45" stroke="#1C1C1C" stroke-width="3"/>
<defs>
<linearGradient id="paint0_linear_446_4784" x1="46.5" y1="0" x2="46.5" y2="93" gradientUnits="userSpaceOnUse">
<stop stop-color="#F0E8E0"/>
<stop offset="0.39416" stop-color="#FBDA53" stop-opacity="0.27"/>
<stop offset="1" stop-color="#FFD51C" stop-opacity="0"/>
</linearGradient>
</defs>
</svg>
