<svg width="76" height="76" viewBox="0 0 76 76" fill="none" xmlns="http://www.w3.org/2000/svg">
<rect x="12" y="19" width="52" height="29" fill="#FFD51C"/>
<path d="M66.5 50.3334V18.6667C66.5 17.407 65.9996 16.1988 65.1088 15.308C64.218 14.4172 63.0098 13.9167 61.75 13.9167H14.25C12.9902 13.9167 11.782 14.4172 10.8912 15.308C10.0004 16.1988 9.5 17.407 9.5 18.6667V50.3334H66.5ZM12.6667 47.1667V20.2501H63.3333V47.1667H12.6667Z" fill="#FFD51C"/>
<path d="M66.6868 53.5H9.31316L2.45891 67.2085C2.0967 67.9327 1.92562 68.7374 1.96193 69.5463C1.99824 70.3552 2.24072 71.1414 2.66635 71.8302C3.09198 72.519 3.68663 73.0876 4.39383 73.4819C5.10102 73.8763 5.89728 74.0833 6.70699 74.0833H69.293C70.1027 74.0833 70.899 73.8763 71.6061 73.4819C72.3133 73.0876 72.908 72.519 73.3336 71.8302C73.7593 71.1414 74.0017 70.3552 74.038 69.5463C74.0744 68.7374 73.9033 67.9327 73.5411 67.2085L66.6868 53.5Z" fill="#FFD51C"/>
<path d="M23 32C23 32 25.5714 35 29 35C32.4286 35 35 32 35 32" stroke="#1C1C1C" stroke-width="3"/>
<path d="M42 32C42 32 44.5714 35 48 35C51.4286 35 54 32 54 32" stroke="#1C1C1C" stroke-width="3"/>
</svg>
