<svg width="93" height="93" viewBox="0 0 93 93" fill="none" xmlns="http://www.w3.org/2000/svg">
<rect width="93" height="93" rx="10" fill="url(#paint0_linear_2460_2495)"/>
<mask id="mask0_2460_2495" style="mask-type:alpha" maskUnits="userSpaceOnUse" x="0" y="0" width="93" height="93">
<rect width="93" height="93" rx="10" fill="#F0E8E0"/>
</mask>
<g mask="url(#mask0_2460_2495)">
<rect x="14" y="69" width="67" height="17" rx="5" fill="#FFD51C"/>
<path d="M28 80C28 80 30.5714 77 34 77C37.4286 77 40 80 40 80" stroke="#1C1C1C" stroke-width="3"/>
<path d="M55 80C55 80 57.5714 77 61 77C64.4286 77 67 80 67 80" stroke="#1C1C1C" stroke-width="3"/>
<path d="M68.5 53.6667C69.9728 53.6667 71.1667 52.4728 71.1667 51C71.1667 49.5272 69.9728 48.3333 68.5 48.3333C67.0272 48.3333 65.8333 49.5272 65.8333 51C65.8333 52.4728 67.0272 53.6667 68.5 53.6667ZM69 69L69 51L68 51L68 69L69 69Z" fill="#FFD51C"/>
<rect x="25" y="87" width="6" height="3" fill="#FFD51C"/>
<rect x="63" y="87" width="6" height="3" fill="#FFD51C"/>
</g>
<defs>
<linearGradient id="paint0_linear_2460_2495" x1="46.5" y1="0" x2="46.5" y2="93" gradientUnits="userSpaceOnUse">
<stop stop-color="#F0E8E0"/>
<stop offset="0.39416" stop-color="#FBDA53" stop-opacity="0.27"/>
<stop offset="1" stop-color="#FFD51C" stop-opacity="0"/>
</linearGradient>
</defs>
</svg>
