<svg width="73" height="35" viewBox="0 0 73 35" fill="none" xmlns="http://www.w3.org/2000/svg">
<g clip-path="url(#clip0_2471_1334)">
<path d="M12.1389 1H60.2609C66.4087 1 71.3998 6.00659 71.3998 12.1917V22.1791C71.3998 28.3642 66.4087 33.3707 60.2609 33.3707H12.1389C5.99114 33.3707 1 28.3642 1 22.1791V12.1917C1 6.00659 5.99114 1 12.1389 1Z" stroke="#1C1C1C" stroke-width="2"/>
<path d="M53.1797 21.3791C51.7091 21.3791 50.5162 20.1325 50.5162 18.5924C50.5162 17.0523 51.7091 15.8056 53.1797 15.8056C54.6503 15.8056 55.8415 17.054 55.8415 18.5906C55.8415 20.1274 54.6486 21.3774 53.1797 21.3774V21.3791ZM55.8415 13.5193V14.9338C55.4548 14.4143 54.9532 13.9928 54.3767 13.7028C53.8002 13.4128 53.1645 13.2623 52.5202 13.2631C49.8752 13.2631 47.8258 15.6496 47.8258 18.5906C47.8258 21.5318 49.8735 23.92 52.5202 23.92C53.2106 23.9196 53.8902 23.7467 54.498 23.4166C55.1058 23.0866 55.6229 22.6097 56.003 22.0287V23.6655H58.5269V13.5209L55.8415 13.5193ZM25.0138 10.7071H27.706V23.6655H25.0138V10.7071ZM30.8002 17.9122C30.8002 15.1238 32.4978 13.2631 34.8517 13.2631C36.3122 13.2631 37.4647 13.9178 38.1613 15.0322C38.8579 13.9178 40.0121 13.2631 41.4725 13.2631C43.8281 13.2631 45.5241 15.1288 45.5241 17.9122V23.6655H42.8321V17.6204C42.8321 16.5333 42.117 15.8226 41.1697 15.8226C40.2224 15.8226 39.5073 16.5333 39.5073 17.6204V23.6655H36.8153V17.6204C36.8153 16.5333 36.1002 15.8226 35.1529 15.8226C34.2057 15.8226 33.4905 16.5333 33.4905 17.6204V23.6655H30.7984L30.8002 17.9122ZM20.1395 13.6261C19.5018 11.2193 18.1558 10.4492 16.872 10.4492C15.5882 10.4492 14.2422 11.2193 13.6061 13.6261L10.8384 23.6655H13.5658C13.7476 22.9197 14.1722 22.257 14.7717 21.7832C15.3713 21.3094 16.1111 21.052 16.8729 21.052C17.6346 21.052 18.3745 21.3094 18.9739 21.7832C19.5734 22.257 19.998 22.9197 20.1799 23.6655H22.9073L20.1395 13.6261ZM16.872 18.7145C16.045 18.7103 15.247 19.0211 14.6376 19.5846L16.199 13.7431C16.3487 13.1851 16.5691 13.007 16.872 13.007C17.1749 13.007 17.3969 13.1766 17.545 13.7431L19.1081 19.5863C18.4984 19.0221 17.6997 18.7106 16.872 18.7145Z" fill="#1C1C1C"/>
</g>
<defs>
<clipPath id="clip0_2471_1334">
<rect width="72.8333" height="35" fill="white"/>
</clipPath>
</defs>
</svg>
