<svg width="59" height="58" viewBox="0 0 59 58" fill="none" xmlns="http://www.w3.org/2000/svg">
<path d="M51.8156 24.2655H31.5311L36.4486 8.92913C37.3706 5.66607 33.6825 3.05563 31.2238 5.66607L6.63659 31.7706C4.79256 33.7284 6.02191 37.3178 8.78797 37.3178H29.0724L24.155 52.6541C23.233 55.9172 26.921 58.5276 29.3797 55.9172L53.9669 29.8127C55.811 27.8549 54.5816 24.2655 51.8156 24.2655Z" fill="#1C1C1C"/>
<path d="M48.7484 19.6649H28.464L33.3814 4.32855C34.3034 1.06549 30.6154 -1.54496 28.1566 1.06549L3.56946 27.17C1.72542 29.1278 2.95478 32.7172 5.72084 32.7172H26.0053L21.0878 48.0535C20.1658 51.3166 23.8539 53.9271 26.3126 51.3166L50.8998 25.2121C52.7438 23.2543 51.5145 19.6649 48.7484 19.6649Z" fill="#FFD51C"/>
</svg>
