<svg width="22" height="22" viewBox="0 0 22 22" fill="none" xmlns="http://www.w3.org/2000/svg">
<g clip-path="url(#clip0_2460_2465)">
<path d="M1.625 10.375H20.375L16.625 6.625H5.375L1.625 10.375Z" stroke="#1C1C1C" stroke-width="2" stroke-linecap="round" stroke-linejoin="round"/>
<path d="M5.375 6.625L6.625 1.625H15.375L16.625 6.625" stroke="#1C1C1C" stroke-width="2" stroke-linecap="round" stroke-linejoin="round"/>
<path d="M16 20.375C17.7259 20.375 19.125 18.9759 19.125 17.25C19.125 15.5241 17.7259 14.125 16 14.125C14.2741 14.125 12.875 15.5241 12.875 17.25C12.875 18.9759 14.2741 20.375 16 20.375Z" stroke="#1C1C1C" stroke-width="2" stroke-linecap="round" stroke-linejoin="round"/>
<path d="M6 20.375C7.72589 20.375 9.125 18.9759 9.125 17.25C9.125 15.5241 7.72589 14.125 6 14.125C4.27411 14.125 2.875 15.5241 2.875 17.25C2.875 18.9759 4.27411 20.375 6 20.375Z" stroke="#1C1C1C" stroke-width="2" stroke-linecap="round" stroke-linejoin="round"/>
<path d="M13.075 16.18C12.5081 15.662 11.768 15.3748 11 15.3748C10.2321 15.3748 9.49197 15.662 8.92505 16.18" stroke="#1C1C1C" stroke-width="2" stroke-linecap="round" stroke-linejoin="round"/>
</g>
<defs>
<clipPath id="clip0_2460_2465">
<rect width="22" height="22" fill="white"/>
</clipPath>
</defs>
</svg>
