<svg width="31" height="31" viewBox="0 0 31 31" fill="none" xmlns="http://www.w3.org/2000/svg">
<g id="ic">
<path id="Vector" d="M15.5 0C12.4344 0 9.43763 0.909059 6.88867 2.61222C4.33971 4.31538 2.35303 6.73615 1.17987 9.56841C0.00671586 12.4007 -0.300236 15.5172 0.297835 18.5239C0.895906 21.5306 2.37214 24.2924 4.53985 26.4602C6.70757 28.6279 9.4694 30.1041 12.4761 30.7022C15.4828 31.3002 18.5993 30.9933 21.4316 29.8201C24.2639 28.647 26.6846 26.6603 28.3878 24.1113C30.0909 21.5624 31 18.5656 31 15.5C30.9877 11.3929 29.3508 7.45755 26.4466 4.5534C23.5425 1.64924 19.6071 0.0122661 15.5 0ZM20.8572 16.3215L13.1072 21.1652C12.9532 21.2615 12.7753 21.3125 12.5938 21.3125C12.3368 21.3125 12.0904 21.2104 11.9087 21.0288C11.7271 20.8471 11.625 20.6007 11.625 20.3438V10.6562C11.625 10.4833 11.6713 10.3135 11.7591 10.1646C11.8468 10.0156 11.9729 9.89277 12.1241 9.80894C12.2754 9.72511 12.4463 9.68329 12.6192 9.68783C12.7921 9.69237 12.9606 9.7431 13.1072 9.83475L20.8572 14.6785C20.9965 14.7656 21.1114 14.8867 21.1911 15.0304C21.2707 15.1741 21.3125 15.3357 21.3125 15.5C21.3125 15.6643 21.2707 15.8259 21.1911 15.9696C21.1114 16.1133 20.9965 16.2344 20.8572 16.3215Z" fill="white"/>
</g>
</svg>
