<svg width="48" height="48" viewBox="0 0 48 48" fill="none" xmlns="http://www.w3.org/2000/svg">
<path d="M29.0893 0.330345C27.7094 0.330345 26.5803 1.45936 26.5803 2.83928V7.85713H31.5982L31.5982 2.83928C31.5982 1.45936 30.4692 0.330345 29.0893 0.330345ZM36.6161 2.83928V7.85713H41.6339V2.83928C41.6339 1.45936 40.5049 0.330345 39.125 0.330345C37.7451 0.330345 36.6161 1.45936 36.6161 2.83928ZM29.0893 24.1652V30.4375H39.125V24.1652C41.8848 24.1652 44.1428 21.9071 44.1428 19.1473V11.6205L24.0714 11.6205L24.0714 19.1473C24.0714 21.9071 26.3294 24.1652 29.0893 24.1652Z" fill="white"/>
<path d="M26.5804 42.9821C23.8205 42.9821 21.5625 40.7241 21.5625 37.9643V34.2009C21.5625 29.3587 17.6235 25.4196 12.7813 25.4196C7.93902 25.4196 4 29.3587 4 34.2009L4 42.9821C4 44.3621 5.12902 45.4911 6.50893 45.4911C7.88884 45.4911 9.01786 44.3621 9.01786 42.9821L9.01786 34.2009C9.01786 32.1185 10.6988 30.4375 12.7813 30.4375C14.8637 30.4375 16.5446 32.1185 16.5446 34.2009V37.9643C16.5446 43.509 21.0356 48 26.5804 48C32.1251 48 36.6161 43.509 36.6161 37.9643V32.9464H31.5982V37.9643C31.5982 40.7241 29.3402 42.9821 26.5804 42.9821Z" fill="white"/>
</svg>
