<svg width="35" height="35" viewBox="0 0 35 35" fill="none" xmlns="http://www.w3.org/2000/svg">
<path d="M32.0834 5.83313C27.4794 5.83313 22.0719 4.21292 18.3094 1.70312C17.8194 1.375 17.1821 1.375 16.6921 1.70312C12.9282 4.21292 7.52067 5.83313 2.91671 5.83313C2.11171 5.83313 1.45837 6.485 1.45837 7.29146C1.45837 19.5035 7.24067 29.2729 16.9255 33.4233C17.1092 33.5021 17.3046 33.5415 17.5 33.5415C17.6955 33.5415 17.8909 33.5021 18.0746 33.4233C27.7594 29.2729 33.5417 19.5035 33.5417 7.29146C33.5417 6.485 32.8884 5.83313 32.0834 5.83313ZM17.5 30.4863V17.4998H6.039C5.09108 14.8165 4.53108 11.8604 4.40421 8.70167C8.85796 8.41729 13.7696 6.90063 17.5 4.64458V17.4998H28.9611C26.8757 23.3988 22.909 27.9794 17.5 30.4863Z" fill="#1C1C1C"/>
</svg>
