<svg width="48" height="48" viewBox="0 0 48 48" fill="none" xmlns="http://www.w3.org/2000/svg">
<g clip-path="url(#clip0_443_4487)">
<path fill-rule="evenodd" clip-rule="evenodd" d="M21.8182 7V17.8203H5.06749L8.88277 8.35994C9.21515 7.5389 10.0163 7 10.909 7H21.8182ZM39.1173 8.35994L42.9325 17.8203H26.1818V7H37.091C37.9837 7 38.7849 7.5389 39.1173 8.35994ZM3.32205 22.1484L0.155462 30.0006C-0.113011 30.6673 -0.0299057 31.4229 0.374932 32.0178C0.781886 32.6127 1.45731 32.9688 2.18175 32.9688H21.8182V22.1484H3.32205ZM26.1818 22.1484H44.678L47.8446 30.0006C48.113 30.6673 48.0299 31.4229 47.6251 32.0178C47.2181 32.6127 46.5427 32.9688 45.8183 32.9688H26.1818V22.1484ZM39.2402 33.9339V40.9678H37.6771H35.2402L11.886 40.9678H7.886V33.9339H11.886V36.9678L35.2402 36.9678V33.9339H39.2402Z" fill="#FFD51C"/>
</g>
<defs>
<clipPath id="clip0_443_4487">
<rect width="48" height="48" fill="white"/>
</clipPath>
</defs>
</svg>
