<svg width="78" height="14" viewBox="0 0 78 14" fill="none" xmlns="http://www.w3.org/2000/svg">
<g clip-path="url(#clip0_2424_4745)">
<path d="M13.5007 4.98226L9.37008 4.38201L7.52499 0.641681C7.47135 0.550598 7.39486 0.475095 7.30309 0.422639C7.21132 0.370183 7.10745 0.34259 7.00174 0.34259C6.89604 0.34259 6.79216 0.370183 6.70039 0.422639C6.60862 0.475095 6.53214 0.550598 6.47849 0.641681L4.62991 4.38201L0.499326 4.98226C0.391608 4.99781 0.290388 5.04319 0.207109 5.11325C0.12383 5.18332 0.0618138 5.27529 0.0280717 5.37876C-0.00567045 5.48223 -0.00979275 5.59308 0.0161708 5.69877C0.0421344 5.80447 0.0971483 5.90079 0.174993 5.97685L3.16458 8.89001L2.45933 13.0043C2.44095 13.1115 2.45294 13.2218 2.49396 13.3226C2.53499 13.4234 2.60339 13.5108 2.69145 13.5747C2.77951 13.6387 2.88371 13.6768 2.99227 13.6846C3.10082 13.6924 3.20941 13.6697 3.30574 13.6191L6.99999 11.6772L10.6942 13.6191C10.7906 13.6697 10.8992 13.6924 11.0077 13.6846C11.1163 13.6768 11.2205 13.6387 11.3085 13.5747C11.3966 13.5108 11.465 13.4234 11.506 13.3226C11.547 13.2218 11.559 13.1115 11.5407 13.0043L10.8354 8.89001L13.825 5.97685C13.9028 5.90086 13.9578 5.80464 13.9839 5.69903C14.0099 5.59342 14.0059 5.48265 13.9723 5.3792C13.9386 5.27576 13.8768 5.18378 13.7937 5.11364C13.7105 5.0435 13.6094 4.99799 13.5018 4.98226H13.5007Z" fill="#FFD51C"/>
</g>
<g clip-path="url(#clip1_2424_4745)">
<path d="M29.5007 4.98226L25.3701 4.38201L23.525 0.641681C23.4714 0.550598 23.3949 0.475095 23.3031 0.422639C23.2113 0.370183 23.1074 0.34259 23.0017 0.34259C22.896 0.34259 22.7922 0.370183 22.7004 0.422639C22.6086 0.475095 22.5321 0.550598 22.4785 0.641681L20.6299 4.38201L16.4993 4.98226C16.3916 4.99781 16.2904 5.04319 16.2071 5.11325C16.1238 5.18332 16.0618 5.27529 16.0281 5.37876C15.9943 5.48223 15.9902 5.59308 16.0162 5.69877C16.0421 5.80447 16.0971 5.90079 16.175 5.97685L19.1646 8.89001L18.4593 13.0043C18.4409 13.1115 18.4529 13.2218 18.494 13.3226C18.535 13.4234 18.6034 13.5108 18.6915 13.5747C18.7795 13.6387 18.8837 13.6768 18.9923 13.6846C19.1008 13.6924 19.2094 13.6697 19.3057 13.6191L23 11.6772L26.6942 13.6191C26.7906 13.6697 26.8992 13.6924 27.0077 13.6846C27.1163 13.6768 27.2205 13.6387 27.3085 13.5747C27.3966 13.5108 27.465 13.4234 27.506 13.3226C27.547 13.2218 27.559 13.1115 27.5407 13.0043L26.8354 8.89001L29.825 5.97685C29.9028 5.90086 29.9578 5.80464 29.9839 5.69903C30.0099 5.59342 30.0059 5.48265 29.9723 5.3792C29.9386 5.27576 29.8768 5.18378 29.7937 5.11364C29.7105 5.0435 29.6094 4.99799 29.5018 4.98226H29.5007Z" fill="#FFD51C"/>
</g>
<g clip-path="url(#clip2_2424_4745)">
<path d="M45.5007 4.98226L41.3701 4.38201L39.525 0.641681C39.4714 0.550598 39.3949 0.475095 39.3031 0.422639C39.2113 0.370183 39.1074 0.34259 39.0017 0.34259C38.896 0.34259 38.7922 0.370183 38.7004 0.422639C38.6086 0.475095 38.5321 0.550598 38.4785 0.641681L36.6299 4.38201L32.4993 4.98226C32.3916 4.99781 32.2904 5.04319 32.2071 5.11325C32.1238 5.18332 32.0618 5.27529 32.0281 5.37876C31.9943 5.48223 31.9902 5.59308 32.0162 5.69877C32.0421 5.80447 32.0971 5.90079 32.175 5.97685L35.1646 8.89001L34.4593 13.0043C34.4409 13.1115 34.4529 13.2218 34.494 13.3226C34.535 13.4234 34.6034 13.5108 34.6915 13.5747C34.7795 13.6387 34.8837 13.6768 34.9923 13.6846C35.1008 13.6924 35.2094 13.6697 35.3057 13.6191L39 11.6772L42.6942 13.6191C42.7906 13.6697 42.8992 13.6924 43.0077 13.6846C43.1163 13.6768 43.2205 13.6387 43.3085 13.5747C43.3966 13.5108 43.465 13.4234 43.506 13.3226C43.547 13.2218 43.559 13.1115 43.5407 13.0043L42.8354 8.89001L45.825 5.97685C45.9028 5.90086 45.9578 5.80464 45.9839 5.69903C46.0099 5.59342 46.0059 5.48265 45.9723 5.3792C45.9386 5.27576 45.8768 5.18378 45.7937 5.11364C45.7105 5.0435 45.6094 4.99799 45.5018 4.98226H45.5007Z" fill="#FFD51C"/>
</g>
<g clip-path="url(#clip3_2424_4745)">
<path d="M61.5007 4.98226L57.3701 4.38201L55.525 0.641681C55.4714 0.550598 55.3949 0.475095 55.3031 0.422639C55.2113 0.370183 55.1074 0.34259 55.0017 0.34259C54.896 0.34259 54.7922 0.370183 54.7004 0.422639C54.6086 0.475095 54.5321 0.550598 54.4785 0.641681L52.6299 4.38201L48.4993 4.98226C48.3916 4.99781 48.2904 5.04319 48.2071 5.11325C48.1238 5.18332 48.0618 5.27529 48.0281 5.37876C47.9943 5.48223 47.9902 5.59308 48.0162 5.69877C48.0421 5.80447 48.0971 5.90079 48.175 5.97685L51.1646 8.89001L50.4593 13.0043C50.4409 13.1115 50.4529 13.2218 50.494 13.3226C50.535 13.4234 50.6034 13.5108 50.6915 13.5747C50.7795 13.6387 50.8837 13.6768 50.9923 13.6846C51.1008 13.6924 51.2094 13.6697 51.3057 13.6191L55 11.6772L58.6942 13.6191C58.7906 13.6697 58.8992 13.6924 59.0077 13.6846C59.1163 13.6768 59.2205 13.6387 59.3085 13.5747C59.3966 13.5108 59.465 13.4234 59.506 13.3226C59.547 13.2218 59.559 13.1115 59.5407 13.0043L58.8354 8.89001L61.825 5.97685C61.9028 5.90086 61.9578 5.80464 61.9839 5.69903C62.0099 5.59342 62.0059 5.48265 61.9723 5.3792C61.9386 5.27576 61.8768 5.18378 61.7937 5.11364C61.7105 5.0435 61.6094 4.99799 61.5018 4.98226H61.5007Z" fill="#FFD51C"/>
</g>
<g clip-path="url(#clip4_2424_4745)">
<path d="M77.5007 4.98226L73.3701 4.38201L71.525 0.641681C71.4714 0.550598 71.3949 0.475095 71.3031 0.422639C71.2113 0.370183 71.1074 0.34259 71.0017 0.34259C70.896 0.34259 70.7922 0.370183 70.7004 0.422639C70.6086 0.475095 70.5321 0.550598 70.4785 0.641681L68.6299 4.38201L64.4993 4.98226C64.3916 4.99781 64.2904 5.04319 64.2071 5.11325C64.1238 5.18332 64.0618 5.27529 64.0281 5.37876C63.9943 5.48223 63.9902 5.59308 64.0162 5.69877C64.0421 5.80447 64.0971 5.90079 64.175 5.97685L67.1646 8.89001L66.4593 13.0043C66.4409 13.1115 66.4529 13.2218 66.494 13.3226C66.535 13.4234 66.6034 13.5108 66.6915 13.5747C66.7795 13.6387 66.8837 13.6768 66.9923 13.6846C67.1008 13.6924 67.2094 13.6697 67.3057 13.6191L71 11.6772L74.6942 13.6191C74.7906 13.6697 74.8992 13.6924 75.0077 13.6846C75.1163 13.6768 75.2205 13.6387 75.3085 13.5747C75.3966 13.5108 75.465 13.4234 75.506 13.3226C75.547 13.2218 75.559 13.1115 75.5407 13.0043L74.8354 8.89001L77.825 5.97685C77.9028 5.90086 77.9578 5.80464 77.9839 5.69903C78.0099 5.59342 78.0059 5.48265 77.9723 5.3792C77.9386 5.27576 77.8768 5.18378 77.7937 5.11364C77.7105 5.0435 77.6094 4.99799 77.5018 4.98226H77.5007Z" fill="#FFD51C"/>
<path d="M73.3707 4.37948L77.5013 4.97973H77.5025C77.6101 4.99546 77.7112 5.04096 77.7943 5.1111C77.8775 5.18124 77.9393 5.27323 77.9729 5.37667C78.0065 5.48011 78.0106 5.59089 77.9845 5.6965C77.9585 5.8021 77.9035 5.89833 77.8257 5.97432L74.8361 8.88748L75.5413 13.0017C75.5597 13.109 75.5477 13.2193 75.5067 13.3201C75.4657 13.4209 75.3973 13.5082 75.3092 13.5722C75.2211 13.6362 75.1169 13.6742 75.0084 13.6821C74.8998 13.6899 74.7913 13.6672 74.6949 13.6166L72.8478 12.6456L72.6169 12.5242L72.5015 12.4636L72.4437 12.4332L72.4482 2.50932L73.3707 4.37948Z" fill="#52575C"/>
</g>
<defs>
<clipPath id="clip0_2424_4745">
<rect width="14" height="14" fill="white"/>
</clipPath>
<clipPath id="clip1_2424_4745">
<rect width="14" height="14" fill="white" transform="translate(16)"/>
</clipPath>
<clipPath id="clip2_2424_4745">
<rect width="14" height="14" fill="white" transform="translate(32)"/>
</clipPath>
<clipPath id="clip3_2424_4745">
<rect width="14" height="14" fill="white" transform="translate(48)"/>
</clipPath>
<clipPath id="clip4_2424_4745">
<rect width="14" height="14" fill="white" transform="translate(64)"/>
</clipPath>
</defs>
</svg>
