<svg width="76" height="15" viewBox="0 0 76 15" fill="none" xmlns="http://www.w3.org/2000/svg">
<g id="trustpilot-logo">
<path id="Rectangle" d="M14.2278 0.620239H0V14.9344H14.2278V0.620239Z" fill="black"/>
<path id="Rectangle_00000119823381696065812290000006309620969489227403_" d="M29.493 0.620239H15.2652V14.9344H29.493V0.620239Z" fill="black"/>
<path id="Rectangle_00000111193577153650357570000000971353195221845171_" d="M44.9064 0.620239H30.6786V14.9344H44.9064V0.620239Z" fill="black"/>
<path id="Rectangle_00000008833768892528033700000000322006702697863864_" d="M60.1716 0.620239H45.9438V14.9344H60.1716V0.620239Z" fill="black"/>
<path id="Rectangle_00000134962926880305233990000003318531366453452990_" d="M75.585 0.620239H61.3573V14.9344H75.585V0.620239Z" fill="#DCDCE6"/>
<path id="Rectangle_00000044876543712720924350000008132246518786235026_" d="M61.3573 0.620239H68.4712V14.7852H61.3573V0.620239Z" fill="black"/>
<path id="Shape_00000004503963772281965500000004689748023012954798_" d="M6.96569 10.163L9.18878 9.56655L10.078 12.3996L6.96569 10.163ZM12.0047 6.58445H8.15133L6.96569 3.00592L5.78004 6.58445H2.07489L5.18722 8.82103L4.00157 12.3996L7.11389 10.163L9.04057 8.82103L12.0047 6.58445Z" fill="white"/>
<path id="Shape_00000062892359206520126170000006215398374882685355_" d="M22.3791 10.163L24.6022 9.56655L25.4914 12.3996L22.3791 10.163ZM27.2699 6.58445H23.4165L22.2309 3.00592L21.0452 6.58445H17.1919L20.3042 8.82103L19.1186 12.3996L22.2309 10.163L24.1576 8.82103L27.2699 6.58445Z" fill="white"/>
<path id="Shape_00000041986034659674372480000017210300048664811149_" d="M37.7925 10.163L40.0156 9.56655L40.9048 12.3996L37.7925 10.163ZM42.6833 6.58445H38.83L37.6443 3.00592L36.4587 6.58445H32.6053L35.7176 8.82103L34.6802 12.3996L37.7925 10.163L39.7192 8.82103L42.6833 6.58445Z" fill="white"/>
<path id="Shape_00000155124147350657945740000004241176506388462744_" d="M53.0577 10.163L55.2808 9.56655L56.1701 12.3996L53.0577 10.163ZM58.0967 6.58445H54.2434L53.0577 3.00592L51.8721 6.58445H48.0187L51.1311 8.82103L49.9454 12.3996L53.0577 10.163L54.9844 8.82103L58.0967 6.58445Z" fill="white"/>
<path id="Shape_00000131362776327819300620000011855054010791946398_" d="M68.4711 10.163L70.6942 9.56655L71.5835 12.3996L68.4711 10.163ZM73.3619 6.58445H69.5086L68.3229 3.00592L67.2855 6.58445H63.4321L66.5445 8.82103L65.3588 12.3996L68.4711 10.163L70.3978 8.82103L73.3619 6.58445Z" fill="white"/>
</g>
</svg>
