<svg width="150" height="48" viewBox="0 0 150 48" fill="none" xmlns="http://www.w3.org/2000/svg">
<rect x="0.5" y="0.5" width="149" height="47" rx="5.5" fill="#F0E8E0" stroke="#1C1C1C"/>
<path d="M53.16 18V12.978H51.225V11.7H56.463V12.978H54.528V18H53.16ZM58.346 18.081C56.744 18.081 55.835 16.992 55.835 15.642C55.835 14.274 56.861 13.194 58.346 13.194C59.921 13.194 60.758 14.409 60.758 15.642V16.119H57.167C57.338 16.677 57.797 16.938 58.346 16.938C59.066 16.938 59.453 16.542 59.57 16.299L60.56 16.893C60.38 17.298 59.687 18.081 58.346 18.081ZM57.194 15.093H59.399C59.363 14.814 59.057 14.31 58.328 14.31C57.86 14.31 57.383 14.562 57.194 15.093ZM57.716 12.753L58.175 11.259H59.48L58.697 12.753H57.716ZM61.3402 18V11.34H62.6452V18H61.3402ZM65.738 18.081C64.136 18.081 63.227 16.992 63.227 15.642C63.227 14.274 64.253 13.194 65.738 13.194C67.313 13.194 68.15 14.409 68.15 15.642V16.119H64.559C64.73 16.677 65.189 16.938 65.738 16.938C66.458 16.938 66.845 16.542 66.962 16.299L67.952 16.893C67.772 17.298 67.079 18.081 65.738 18.081ZM64.586 15.093H66.791C66.755 14.814 66.449 14.31 65.72 14.31C65.252 14.31 64.775 14.562 64.586 15.093ZM65.108 12.753L65.567 11.259H66.872L66.089 12.753H65.108ZM70.9461 18.09C69.5511 18.09 68.4171 17.127 68.4171 15.642C68.4171 14.202 69.5511 13.194 70.9461 13.194C72.0261 13.194 72.8361 13.716 73.2321 14.616L72.0711 15.219C71.9091 14.769 71.5221 14.427 70.9461 14.427C70.2261 14.427 69.7491 14.958 69.7491 15.642C69.7491 16.326 70.2261 16.857 70.9461 16.857C71.4681 16.857 71.8551 16.578 72.0351 16.164L73.1871 16.749C72.7731 17.577 71.9721 18.09 70.9461 18.09ZM73.9068 18V11.34H75.2118V13.851C75.4188 13.491 75.8778 13.194 76.4628 13.194C77.5068 13.194 78.1638 13.959 78.1638 14.832V18H76.8588V15.291C76.8588 14.787 76.4898 14.454 76.0398 14.454C75.5178 14.454 75.2118 14.823 75.2118 15.291V18H73.9068ZM80.4546 18.09C79.5456 18.09 78.8436 17.505 78.8436 16.614C78.8436 15.732 79.4556 15.174 80.5086 15.111L81.7326 15.039V15.012C81.7326 14.769 81.4356 14.373 80.8596 14.373C80.2296 14.373 79.9686 14.76 79.8786 15.012L78.8346 14.472C79.1676 13.734 79.8336 13.194 80.8956 13.194C82.3986 13.194 83.0466 14.292 83.0466 15.156V18H81.7326V17.532C81.5256 17.865 81.0756 18.09 80.4546 18.09ZM80.1756 16.551C80.1756 16.794 80.3736 16.938 80.6796 16.938C81.1026 16.938 81.7506 16.677 81.7506 16.128V16.092L80.5986 16.164C80.3376 16.182 80.1756 16.335 80.1756 16.551ZM84.0409 18V13.275H85.3639V14.058L86.9659 13.167V14.553L85.3639 15.381V18H84.0409ZM89.5863 18.891C90.4683 18.891 90.8643 18.333 90.8643 17.757V17.442C90.5943 17.748 90.1083 17.991 89.4423 17.991C88.2453 17.991 87.1473 17.136 87.1473 15.597C87.1473 14.112 88.2453 13.194 89.4423 13.194C90.1083 13.194 90.5943 13.482 90.8643 13.833V13.275H92.1693V17.586C92.1693 18.891 91.3953 20.142 89.5863 20.142C88.4793 20.142 87.5973 19.539 87.2553 18.693L88.3443 18.108C88.5693 18.63 89.0553 18.891 89.5863 18.891ZM88.4793 15.597C88.4793 16.281 88.9833 16.767 89.6763 16.767C90.3783 16.767 90.8733 16.281 90.8733 15.597C90.8733 14.913 90.3783 14.427 89.6763 14.427C88.9833 14.427 88.4793 14.913 88.4793 15.597ZM95.2615 18.081C93.6595 18.081 92.7505 16.992 92.7505 15.642C92.7505 14.274 93.7765 13.194 95.2615 13.194C96.8365 13.194 97.6735 14.409 97.6735 15.642V16.119H94.0825C94.2535 16.677 94.7125 16.938 95.2615 16.938C95.9815 16.938 96.3685 16.542 96.4855 16.299L97.4755 16.893C97.2955 17.298 96.6025 18.081 95.2615 18.081ZM94.1095 15.093H96.3145C96.2785 14.814 95.9725 14.31 95.2435 14.31C94.7755 14.31 94.2985 14.562 94.1095 15.093ZM98.3456 18V13.275H99.6686V14.058L101.271 13.167V14.553L99.6686 15.381V18H98.3456ZM105.273 18.081C104.04 18.081 102.933 17.181 102.933 15.642C102.933 14.157 104.04 13.194 105.273 13.194C105.885 13.194 106.47 13.446 106.74 13.797V11.34H108.045V18H106.74V17.478C106.47 17.829 105.885 18.081 105.273 18.081ZM104.265 15.642C104.265 16.326 104.769 16.857 105.507 16.857C106.227 16.857 106.749 16.326 106.749 15.642C106.749 14.958 106.227 14.427 105.507 14.427C104.769 14.427 104.265 14.958 104.265 15.642ZM110.343 18.09C109.434 18.09 108.732 17.505 108.732 16.614C108.732 15.732 109.344 15.174 110.397 15.111L111.621 15.039V15.012C111.621 14.769 111.324 14.373 110.748 14.373C110.118 14.373 109.857 14.76 109.767 15.012L108.723 14.472C109.056 13.734 109.722 13.194 110.784 13.194C112.287 13.194 112.935 14.292 112.935 15.156V18H111.621V17.532C111.414 17.865 110.964 18.09 110.343 18.09ZM110.064 16.551C110.064 16.794 110.262 16.938 110.568 16.938C110.991 16.938 111.639 16.677 111.639 16.128V16.092L110.487 16.164C110.226 16.182 110.064 16.335 110.064 16.551ZM113.929 18V13.275H115.234V13.851C115.441 13.491 115.9 13.194 116.485 13.194C117.529 13.194 118.186 13.959 118.186 14.832V18H116.881V15.291C116.881 14.787 116.512 14.454 116.062 14.454C115.54 14.454 115.234 14.823 115.234 15.291V18H113.929ZM120.891 18.081C119.703 18.081 119.019 17.478 118.767 16.794L119.847 16.281C120.009 16.623 120.378 16.938 120.963 16.938C121.458 16.938 121.701 16.794 121.701 16.605C121.701 16.443 121.557 16.344 121.314 16.299L120.36 16.119C119.676 15.993 119.019 15.624 119.019 14.706C119.019 13.77 119.901 13.194 120.963 13.194C122.142 13.194 122.745 13.77 122.952 14.409L121.899 14.913C121.827 14.607 121.458 14.319 120.936 14.319C120.576 14.319 120.324 14.454 120.324 14.652C120.324 14.841 120.495 14.922 120.738 14.967L121.701 15.147C122.574 15.309 123.033 15.858 123.033 16.524C123.033 17.397 122.313 18.081 120.891 18.081Z" fill="#1C1C1C"/>
<g clip-path="url(#clip0_434_3156)">
<path d="M29.827 24.7169C29.837 23.9029 30.058 23.1039 30.467 22.3949C30.8807 21.6847 31.4663 21.0898 32.17 20.6649C31.7191 20.0319 31.1267 19.5128 30.44 19.1489C29.7493 18.7824 28.9835 18.5798 28.202 18.5569C26.531 18.3839 24.914 19.5369 24.063 19.5369C23.195 19.5369 21.886 18.5719 20.477 18.6019C19.5652 18.6298 18.6759 18.8912 17.894 19.3609C17.1176 19.824 16.4752 20.4812 16.03 21.2679C14.105 24.5349 15.54 29.3389 17.38 31.9829C18.301 33.2799 19.379 34.7229 20.788 34.6729C22.168 34.6169 22.684 33.8069 24.346 33.8069C25.997 33.8069 26.482 34.6719 27.919 34.6399C29.399 34.6169 30.332 33.3399 31.219 32.0349C31.8783 31.1137 32.3879 30.0942 32.729 29.0139C31.8724 28.66 31.1387 28.0623 30.619 27.2949C30.104 26.5336 29.8289 25.636 29.827 24.7169ZM27.112 16.8179C27.9174 15.8731 28.3158 14.6477 28.22 13.4099C26.9914 13.5332 25.8534 14.1118 25.03 15.0319C24.6309 15.4745 24.3247 15.9927 24.1294 16.5557C23.9341 17.1188 23.8537 17.7153 23.893 18.3099C24.507 18.3184 25.1151 18.1886 25.6721 17.9302C26.2292 17.6717 26.7209 17.2912 27.111 16.8169" fill="#1C1C1C"/>
</g>
<path d="M51.17 35L55.029 23.1H58.582L62.424 35H59.755L58.939 32.433H54.621L53.805 35H51.17ZM55.369 30.053H58.191L56.78 25.599L55.369 30.053ZM63.2719 38.893V26.075H65.7369V27.061C66.2469 26.398 67.3519 25.922 68.5079 25.922C70.8369 25.922 72.9279 27.622 72.9279 30.529C72.9279 33.334 70.8369 35.153 68.5079 35.153C67.3519 35.153 66.2469 34.677 65.7369 34.014V38.893H63.2719ZM65.7199 30.529C65.7199 31.821 66.7059 32.824 68.0659 32.824C69.4599 32.824 70.4119 31.821 70.4119 30.529C70.4119 29.237 69.4599 28.234 68.0659 28.234C66.7059 28.234 65.7199 29.237 65.7199 30.529ZM74.2043 38.893V26.075H76.6693V27.061C77.1793 26.398 78.2843 25.922 79.4403 25.922C81.7693 25.922 83.8603 27.622 83.8603 30.529C83.8603 33.334 81.7693 35.153 79.4403 35.153C78.2843 35.153 77.1793 34.677 76.6693 34.014V38.893H74.2043ZM76.6523 30.529C76.6523 31.821 77.6383 32.824 78.9983 32.824C80.3923 32.824 81.3443 31.821 81.3443 30.529C81.3443 29.237 80.3923 28.234 78.9983 28.234C77.6383 28.234 76.6523 29.237 76.6523 30.529ZM92.2185 32.671C93.9695 32.671 94.4455 32.11 94.4455 31.583C94.4455 31.124 94.1055 30.767 93.3065 30.58L91.2665 30.087C89.3795 29.628 87.9345 28.608 87.9345 26.568C87.9345 24.324 89.8725 22.947 92.3715 22.947C95.0235 22.947 96.4175 24.358 96.9275 25.769L94.6155 26.891C94.4285 26.16 93.7655 25.31 92.3715 25.31C91.1135 25.31 90.5355 25.888 90.5355 26.5C90.5355 27.027 90.9605 27.333 91.6235 27.486L94.0715 28.081C96.0265 28.557 97.0805 29.764 97.0805 31.43C97.0805 33.317 95.6185 35.153 92.1335 35.153C89.3625 35.153 87.8495 33.589 87.3395 32.297L89.5155 31.039C89.8555 32.008 90.9945 32.671 92.2185 32.671ZM99.0963 35V28.37H97.6683V26.075H99.1473V23.984H101.561V26.075H103.686V28.37H101.561V32.62H103.72V35H99.0963ZM109.265 35.17C106.579 35.17 104.403 33.351 104.403 30.546C104.403 27.741 106.579 25.922 109.265 25.922C111.951 25.922 114.127 27.741 114.127 30.546C114.127 33.351 111.951 35.17 109.265 35.17ZM106.919 30.546C106.919 31.838 107.905 32.841 109.265 32.841C110.625 32.841 111.611 31.838 111.611 30.546C111.611 29.254 110.625 28.251 109.265 28.251C107.905 28.251 106.919 29.254 106.919 30.546ZM115.403 35V26.075H117.902V27.554L120.928 25.871V28.489L117.902 30.053V35H115.403ZM126.013 35.153C122.987 35.153 121.27 33.096 121.27 30.546C121.27 27.962 123.208 25.922 126.013 25.922C128.988 25.922 130.569 28.217 130.569 30.546V31.447H123.786C124.109 32.501 124.976 32.994 126.013 32.994C127.373 32.994 128.104 32.246 128.325 31.787L130.195 32.909C129.855 33.674 128.546 35.153 126.013 35.153ZM123.837 29.509H128.002C127.934 28.982 127.356 28.03 125.979 28.03C125.095 28.03 124.194 28.506 123.837 29.509Z" fill="#1C1C1C"/>
<defs>
<clipPath id="clip0_434_3156">
<rect width="18" height="22" fill="white" transform="translate(15 13)"/>
</clipPath>
</defs>
</svg>
