<svg width="271" height="569" viewBox="0 0 271 569" fill="none" xmlns="http://www.w3.org/2000/svg">
<g clip-path="url(#clip0_401_1168)">
<path fill-rule="evenodd" clip-rule="evenodd" d="M349.947 541.061C349.947 425.893 256.55 332.531 141.34 332.531C26.1293 332.531 -67.2672 425.893 -67.2672 541.061C-67.2672 617.84 71.804 617.84 349.947 541.061Z" fill="#FFD51C"/>
<path d="M95.5953 446.116C115.305 446.116 131.282 430.133 131.282 410.418C131.282 390.702 115.305 374.719 95.5953 374.719C75.8859 374.719 59.9083 390.702 59.9083 410.418C59.9083 430.133 75.8859 446.116 95.5953 446.116Z" fill="white"/>
<path d="M100.543 417.317C110.398 417.317 118.387 409.326 118.387 399.468C118.387 389.61 110.398 381.619 100.543 381.619C90.6885 381.619 82.6997 389.61 82.6997 399.468C82.6997 409.326 90.6885 417.317 100.543 417.317Z" fill="#1C1C1C"/>
<path d="M187.084 446.116C206.793 446.116 222.771 430.133 222.771 410.418C222.771 390.702 206.793 374.719 187.084 374.719C167.375 374.719 151.397 390.702 151.397 410.418C151.397 430.133 167.375 446.116 187.084 446.116Z" fill="white"/>
<path d="M182.032 417.317C191.887 417.317 199.875 409.326 199.875 399.468C199.875 389.61 191.887 381.619 182.032 381.619C172.177 381.619 164.188 389.61 164.188 399.468C164.188 409.326 172.177 417.317 182.032 417.317Z" fill="#1C1C1C"/>
<path d="M69.3395 106.301C72.1205 106.301 72.8765 105.41 72.8765 104.573C72.8765 103.844 72.3365 103.277 71.0675 102.98L67.8275 102.197C64.8305 101.468 62.5355 99.848 62.5355 96.608C62.5355 93.044 65.6135 90.857 69.5825 90.857C73.7945 90.857 76.0085 93.098 76.8185 95.339L73.1465 97.121C72.8495 95.96 71.7965 94.61 69.5825 94.61C67.5845 94.61 66.6665 95.528 66.6665 96.5C66.6665 97.337 67.3415 97.823 68.3945 98.066L72.2825 99.011C75.3875 99.767 77.0615 101.684 77.0615 104.33C77.0615 107.327 74.7395 110.243 69.2045 110.243C64.8035 110.243 62.4005 107.759 61.5905 105.707L65.0465 103.709C65.5865 105.248 67.3955 106.301 69.3395 106.301ZM86.2571 110.27C82.0721 110.27 78.6701 107.381 78.6701 102.926C78.6701 98.606 82.0721 95.582 86.2571 95.582C89.4971 95.582 91.9271 97.148 93.1151 99.848L89.6321 101.657C89.1461 100.307 87.9851 99.281 86.2571 99.281C84.0971 99.281 82.6661 100.874 82.6661 102.926C82.6661 104.978 84.0971 106.571 86.2571 106.571C87.8231 106.571 88.9841 105.734 89.5241 104.492L92.9801 106.247C91.7381 108.731 89.3351 110.27 86.2571 110.27ZM99.5941 110.27C96.8671 110.27 94.7611 108.515 94.7611 105.842C94.7611 103.196 96.5971 101.522 99.7561 101.333L103.428 101.117V101.036C103.428 100.307 102.537 99.119 100.809 99.119C98.9191 99.119 98.1361 100.28 97.8661 101.036L94.7341 99.416C95.7331 97.202 97.7311 95.582 100.917 95.582C105.426 95.582 107.37 98.876 107.37 101.468V110H103.428V108.596C102.807 109.595 101.457 110.27 99.5941 110.27ZM98.7571 105.653C98.7571 106.382 99.3511 106.814 100.269 106.814C101.538 106.814 103.482 106.031 103.482 104.384V104.276L100.026 104.492C99.2431 104.546 98.7571 105.005 98.7571 105.653ZM110.893 110V95.825H114.808V97.553C115.429 96.473 116.806 95.582 118.561 95.582C121.693 95.582 123.664 97.877 123.664 100.496V110H119.749V101.873C119.749 100.361 118.642 99.362 117.292 99.362C115.726 99.362 114.808 100.469 114.808 101.873V110H110.893ZM127.161 110V95.825H131.076V97.553C131.697 96.473 133.074 95.582 134.829 95.582C137.961 95.582 139.932 97.877 139.932 100.496V110H136.017V101.873C136.017 100.361 134.91 99.362 133.56 99.362C131.994 99.362 131.076 100.469 131.076 101.873V110H127.161ZM149.748 110.243C144.942 110.243 142.215 106.976 142.215 102.926C142.215 98.822 145.293 95.582 149.748 95.582C154.473 95.582 156.984 99.227 156.984 102.926V104.357H146.211C146.724 106.031 148.101 106.814 149.748 106.814C151.908 106.814 153.069 105.626 153.42 104.897L156.39 106.679C155.85 107.894 153.771 110.243 149.748 110.243ZM146.292 101.279H152.907C152.799 100.442 151.881 98.93 149.694 98.93C148.29 98.93 146.859 99.686 146.292 101.279ZM158.595 110V106.544L165.507 99.281H158.622V95.825H170.475V99.281L163.536 106.544H170.529V110H158.595ZM184.712 110.27C180.527 110.27 177.125 107.381 177.125 102.926C177.125 98.606 180.527 95.582 184.712 95.582C187.952 95.582 190.382 97.148 191.57 99.848L188.087 101.657C187.601 100.307 186.44 99.281 184.712 99.281C182.552 99.281 181.121 100.874 181.121 102.926C181.121 104.978 182.552 106.571 184.712 106.571C186.278 106.571 187.439 105.734 187.979 104.492L191.435 106.247C190.193 108.731 187.79 110.27 184.712 110.27ZM200.452 110.243C195.646 110.243 192.919 106.976 192.919 102.926C192.919 98.822 195.997 95.582 200.452 95.582C205.177 95.582 207.688 99.227 207.688 102.926V104.357H196.915C197.428 106.031 198.805 106.814 200.452 106.814C202.612 106.814 203.773 105.626 204.124 104.897L207.094 106.679C206.554 107.894 204.475 110.243 200.452 110.243ZM196.996 101.279H203.611C203.503 100.442 202.585 98.93 200.398 98.93C198.994 98.93 197.563 99.686 196.996 101.279ZM60.1871 144.913L52.2221 143.023V139.054C47.6051 138.19 44.4191 134.383 44.4191 129.55C44.4191 123.988 48.5771 119.857 54.2741 119.857C59.9711 119.857 64.1291 123.988 64.1291 129.55C64.1291 134.41 60.9161 138.217 56.2721 139.054V140.107L60.1871 140.998V144.913ZM48.6041 129.55C48.6041 133.033 51.1961 135.301 54.2741 135.301C57.3521 135.301 59.9441 133.033 59.9441 129.55C59.9441 126.067 57.3521 123.799 54.2741 123.799C51.1961 123.799 48.6041 126.067 48.6041 129.55ZM66.9715 139V120.1H74.8555C79.0945 120.1 81.5245 123.097 81.5245 126.121C81.5245 128.524 80.2825 130.657 78.0415 131.683L81.9835 136.489V139H77.8255V137.218L73.8565 132.331H70.9405V139H66.9715ZM70.9405 128.767H74.7745C76.3945 128.767 77.4475 127.633 77.4475 126.202C77.4475 124.798 76.3945 123.664 74.7745 123.664H70.9405V128.767ZM98.3073 139.243C92.6103 139.243 88.4523 135.085 88.4523 129.55C88.4523 123.988 92.6103 119.857 98.3073 119.857C102.411 119.857 105.732 122.017 107.109 125.284L103.518 127.201C102.654 125.095 100.629 123.853 98.3073 123.853C95.2293 123.853 92.6373 126.04 92.6373 129.55C92.6373 133.06 95.2293 135.247 98.3073 135.247C100.737 135.247 102.843 133.897 103.653 131.602L107.271 133.465C105.921 136.921 102.546 139.243 98.3073 139.243ZM116.345 139.27C112.079 139.27 108.623 136.381 108.623 131.926C108.623 127.471 112.079 124.582 116.345 124.582C120.611 124.582 124.067 127.471 124.067 131.926C124.067 136.381 120.611 139.27 116.345 139.27ZM112.619 131.926C112.619 133.978 114.185 135.571 116.345 135.571C118.505 135.571 120.071 133.978 120.071 131.926C120.071 129.874 118.505 128.281 116.345 128.281C114.185 128.281 112.619 129.874 112.619 131.926ZM132.439 139.243C128.74 139.243 125.419 136.543 125.419 131.926C125.419 127.471 128.74 124.582 132.439 124.582C134.275 124.582 136.03 125.338 136.84 126.391V119.02H140.755V139H136.84V137.434C136.03 138.487 134.275 139.243 132.439 139.243ZM129.415 131.926C129.415 133.978 130.927 135.571 133.141 135.571C135.301 135.571 136.867 133.978 136.867 131.926C136.867 129.874 135.301 128.281 133.141 128.281C130.927 128.281 129.415 129.874 129.415 131.926ZM150.592 139.243C145.786 139.243 143.059 135.976 143.059 131.926C143.059 127.822 146.137 124.582 150.592 124.582C155.317 124.582 157.828 128.227 157.828 131.926V133.357H147.055C147.568 135.031 148.945 135.814 150.592 135.814C152.752 135.814 153.913 134.626 154.264 133.897L157.234 135.679C156.694 136.894 154.615 139.243 150.592 139.243ZM147.136 130.279H153.751C153.643 129.442 152.725 127.93 150.538 127.93C149.134 127.93 147.703 128.686 147.136 130.279ZM169.283 139.27C166.556 139.27 164.45 137.515 164.45 134.842C164.45 132.196 166.286 130.522 169.445 130.333L173.117 130.117V130.036C173.117 129.307 172.226 128.119 170.498 128.119C168.608 128.119 167.825 129.28 167.555 130.036L164.423 128.416C165.422 126.202 167.42 124.582 170.606 124.582C175.115 124.582 177.059 127.876 177.059 130.468V139H173.117V137.596C172.496 138.595 171.146 139.27 169.283 139.27ZM168.446 134.653C168.446 135.382 169.04 135.814 169.958 135.814C171.227 135.814 173.171 135.031 173.171 133.384V133.276L169.715 133.492C168.932 133.546 168.446 134.005 168.446 134.653ZM183.652 139L178.279 124.825H182.572L185.947 134.437L189.16 124.825H193.48L188.161 139H183.652ZM201.56 139.243C196.754 139.243 194.027 135.976 194.027 131.926C194.027 127.822 197.105 124.582 201.56 124.582C206.285 124.582 208.796 128.227 208.796 131.926V133.357H198.023C198.536 135.031 199.913 135.814 201.56 135.814C203.72 135.814 204.881 134.626 205.232 133.897L208.202 135.679C207.662 136.894 205.583 139.243 201.56 139.243ZM198.104 130.279H204.719C204.611 129.442 203.693 127.93 201.506 127.93C200.102 127.93 198.671 128.686 198.104 130.279ZM217.724 139.27C213.539 139.27 210.137 136.381 210.137 131.926C210.137 127.606 213.539 124.582 217.724 124.582C220.964 124.582 223.394 126.148 224.582 128.848L221.099 130.657C220.613 129.307 219.452 128.281 217.724 128.281C215.564 128.281 214.133 129.874 214.133 131.926C214.133 133.978 215.564 135.571 217.724 135.571C219.29 135.571 220.451 134.734 220.991 133.492L224.447 135.247C223.205 137.731 220.802 139.27 217.724 139.27ZM85.3288 168L79.9558 153.825H84.2488L87.6238 163.437L90.8368 153.825H95.1568L89.8378 168H85.3288ZM103.425 168.27C99.1593 168.27 95.7033 165.381 95.7033 160.926C95.7033 156.471 99.1593 153.582 103.425 153.582C107.691 153.582 111.147 156.471 111.147 160.926C111.147 165.381 107.691 168.27 103.425 168.27ZM99.6993 160.926C99.6993 162.978 101.265 164.571 103.425 164.571C105.585 164.571 107.151 162.978 107.151 160.926C107.151 158.874 105.585 157.281 103.425 157.281C101.265 157.281 99.6993 158.874 99.6993 160.926ZM114.632 168V157.47H112.364V153.825H114.713V150.504H118.547V153.825H121.922V157.47H118.547V164.22H121.976V168H114.632ZM124.815 168V153.825H128.784V156.174L133.59 153.501V157.659L128.784 160.143V168H124.815ZM142.207 168.243C137.401 168.243 134.674 164.976 134.674 160.926C134.674 156.822 137.752 153.582 142.207 153.582C146.932 153.582 149.443 157.227 149.443 160.926V162.357H138.67C139.183 164.031 140.56 164.814 142.207 164.814C144.367 164.814 145.528 163.626 145.879 162.897L148.849 164.679C148.309 165.894 146.23 168.243 142.207 168.243ZM138.751 159.279H145.366C145.258 158.442 144.34 156.93 142.153 156.93C140.749 156.93 139.318 157.686 138.751 159.279ZM157.901 168V157.47H155.633V153.825H157.982V150.504H161.816V153.825H165.191V157.47H161.816V164.22H165.245V168H157.901ZM174.401 168.243C169.595 168.243 166.868 164.976 166.868 160.926C166.868 156.822 169.946 153.582 174.401 153.582C179.126 153.582 181.637 157.227 181.637 160.926V162.357H170.864C171.377 164.031 172.754 164.814 174.401 164.814C176.561 164.814 177.722 163.626 178.073 162.897L181.043 164.679C180.503 165.894 178.424 168.243 174.401 168.243ZM170.945 159.279H177.56C177.452 158.442 176.534 156.93 174.347 156.93C172.943 156.93 171.512 157.686 170.945 159.279ZM183.924 168V148.02H187.839V168H183.924Z" fill="#8A8A8A"/>
<path d="M119.667 214.833H92.8334V241.667H119.667V214.833ZM115.833 237.833H96.6667V218.667H115.833V237.833Z" fill="#1C1C1C"/>
<path d="M148.417 291.5H144.583V299.167H177.167V295.333H148.417V291.5Z" fill="#1C1C1C"/>
<path d="M112 222.5H100.5V234H112V222.5Z" fill="#1C1C1C"/>
<path d="M92.8334 299.167H119.667V272.333H92.8334V299.167ZM96.6667 276.167H115.833V295.333H96.6667V276.167Z" fill="#1C1C1C"/>
<path d="M112 280H100.5V291.5H112V280Z" fill="#1C1C1C"/>
<path d="M150.333 214.833V241.667H177.167V214.833H150.333ZM173.333 237.833H154.167V218.667H173.333V237.833Z" fill="#1C1C1C"/>
<path d="M169.5 222.5H158V234H169.5V222.5Z" fill="#1C1C1C"/>
<path d="M177.167 245.5H169.5V253.167H177.167V245.5Z" fill="#1C1C1C"/>
<path d="M100.5 260.833H92.8334V268.5H100.5V260.833Z" fill="#1C1C1C"/>
<path d="M133.083 245.5H117.75V249.333H136.917V241.667V237.833H140.75V230.167H136.917H133.083H129.25V222.5H133.083V226.333H146.5V214.833H142.667V222.5H136.917V214.833H135H127.333H125.417V234H133.083V237.833H125.417V241.667H133.083V245.5Z" fill="#1C1C1C"/>
<path d="M98.5834 257H106.25H110.083H112V260.833H104.333V264.667H112V268.5H127.333V264.667H115.833V260.833V253.167H110.083V247.417H106.25V253.167H102.417V245.5H92.8334V249.333H98.5834V257Z" fill="#1C1C1C"/>
<path d="M135 291.5V281.917H127.333V274.25H123.5V285.75H131.167V291.5H123.5V295.333H131.167V299.167H140.75V295.333H135V291.5Z" fill="#1C1C1C"/>
<path d="M154.167 253.167H146.5V243.583H142.667V257H161.833V253.167H158V249.333H163.75V245.5H158H154.167H150.333V249.333H154.167V253.167Z" fill="#1C1C1C"/>
<path d="M150.333 287.667H156.083V291.5H163.75V287.667V283.833V278.083H156.083V283.833H150.333V278.083H146.5V283.833H142.667V268.5H138.833V264.667H135V253.167H121.583V260.833H125.417V257H131.167V264.667V272.333H138.833V283.833V287.667H142.667H146.5H150.333Z" fill="#1C1C1C"/>
<path d="M173.333 262.75H167.583H163.75H154.167V270.417H150.333V262.75H146.5V274.25H158V266.583H163.75V272.333H167.583V266.583H173.333V278.083H167.583V289.583H177.167V285.75H171.417V281.917H177.167V266.583V262.75V257H173.333V262.75Z" fill="#1C1C1C"/>
<path fill-rule="evenodd" clip-rule="evenodd" d="M92.0267 547.37H179.622C180.518 547.37 181.244 548.096 181.244 548.992C181.244 549.888 180.518 550.615 179.622 550.615H92.0267C91.1308 550.615 90.4045 549.888 90.4045 548.992C90.4045 548.096 91.1308 547.37 92.0267 547.37Z" fill="#1C1C1C"/>
<path opacity="0.35" fill-rule="evenodd" clip-rule="evenodd" d="M243.752 27.5284C244.986 27.5284 245.481 27.6531 245.963 27.9109C246.417 28.154 246.774 28.5108 247.017 28.9654C247.274 29.4474 247.399 29.9425 247.399 31.1765V32.7888C247.399 34.0228 247.274 34.5179 247.017 34.9999C246.774 35.4545 246.417 35.8112 245.963 36.0543C245.481 36.3121 244.986 36.4368 243.752 36.4368H233.235C232.001 36.4368 231.506 36.3121 231.024 36.0543C230.57 35.8112 230.213 35.4545 229.97 34.9999C229.713 34.5179 229.588 34.0228 229.588 32.7888V31.1765C229.588 29.9425 229.713 29.4474 229.97 28.9654C230.213 28.5108 230.57 28.154 231.024 27.9109C231.506 27.6531 232.001 27.5284 233.235 27.5284H243.752Z" stroke="#1C1C1C"/>
<path opacity="0.4" d="M248.438 30.6216V33.591C249.035 33.3395 249.424 32.7545 249.424 32.1063C249.424 31.4581 249.035 30.8731 248.438 30.6216Z" fill="#1C1C1C"/>
<path d="M232.931 28.642H243.759C244.586 28.642 244.886 28.7281 245.188 28.8899C245.491 29.0516 245.728 29.289 245.89 29.5914C246.051 29.8939 246.137 30.1939 246.137 31.0211V32.9441C246.137 33.7714 246.051 34.0714 245.89 34.3738C245.728 34.6763 245.491 34.9136 245.188 35.0754C244.886 35.2371 244.586 35.3233 243.759 35.3233H232.931C232.104 35.3233 231.804 35.2371 231.502 35.0754C231.2 34.9136 230.962 34.6763 230.801 34.3738C230.639 34.0714 230.553 33.7714 230.553 32.9441V31.0211C230.553 30.1939 230.639 29.8939 230.801 29.5914C230.962 29.289 231.2 29.0516 231.502 28.8899C231.804 28.7281 232.104 28.642 232.931 28.642Z" fill="#1C1C1C"/>
<path d="M217.396 29.3998C219.242 29.3998 221.017 30.0717 222.354 31.2764C222.455 31.3694 222.616 31.3683 222.715 31.2738L223.678 30.3532C223.729 30.3053 223.757 30.2404 223.756 30.1729C223.756 30.1053 223.727 30.0408 223.676 29.9934C220.165 26.8059 214.626 26.8059 211.115 29.9934C211.064 30.0407 211.035 30.1053 211.035 30.1728C211.034 30.2403 211.062 30.3053 211.112 30.3532L212.076 31.2738C212.175 31.3684 212.336 31.3696 212.437 31.2764C213.774 30.0716 215.55 29.3998 217.396 29.3998ZM217.394 32.4747C218.402 32.4747 219.373 32.8475 220.12 33.5209C220.221 33.6164 220.38 33.6144 220.478 33.5162L221.434 32.5549C221.484 32.5045 221.512 32.4361 221.511 32.365C221.51 32.2939 221.481 32.2261 221.43 32.1767C219.156 30.0704 215.635 30.0704 213.361 32.1767C213.31 32.2261 213.28 32.294 213.28 32.3651C213.279 32.4362 213.307 32.5046 213.358 32.5549L214.313 33.5162C214.411 33.6144 214.57 33.6164 214.671 33.5209C215.417 32.848 216.388 32.4751 217.394 32.4747ZM219.19 34.7147C219.24 34.6609 219.268 34.5869 219.266 34.5102C219.265 34.4334 219.235 34.3607 219.183 34.3092C218.151 33.3519 216.64 33.3519 215.608 34.3092C215.557 34.3606 215.526 34.4333 215.525 34.5101C215.523 34.5868 215.551 34.6609 215.601 34.7147L217.216 36.5033C217.264 36.5558 217.328 36.5854 217.396 36.5854C217.463 36.5854 217.527 36.5558 217.575 36.5033L219.19 34.7147Z" fill="#1C1C1C"/>
<path d="M192.012 33.0219H192.803C193.24 33.0219 193.595 33.4042 193.595 33.8757V35.5831C193.595 36.0546 193.24 36.4368 192.803 36.4368H192.012C191.574 36.4368 191.22 36.0546 191.22 35.5831V33.8757C191.22 33.4042 191.574 33.0219 192.012 33.0219ZM195.945 31.2403H196.736C197.174 31.2403 197.528 31.628 197.528 32.1064V35.5707C197.528 36.0491 197.174 36.4368 196.736 36.4368H195.945C195.508 36.4368 195.153 36.0491 195.153 35.5707V32.1064C195.153 31.628 195.508 31.2403 195.945 31.2403ZM199.952 29.3101H200.744C201.181 29.3101 201.536 29.693 201.536 30.1653V35.5816C201.536 36.0539 201.181 36.4368 200.744 36.4368H199.952C199.515 36.4368 199.161 36.0539 199.161 35.5816V30.1653C199.161 29.693 199.515 29.3101 199.952 29.3101ZM204.677 27.5284C205.114 27.5284 205.469 27.9024 205.469 28.3636V35.6017C205.469 36.0629 205.114 36.4368 204.677 36.4368H203.886C203.448 36.4368 203.094 36.0629 203.094 35.6017V28.3636C203.094 27.9024 203.448 27.5284 203.886 27.5284H204.677Z" fill="#1C1C1C"/>
<path d="M37.2021 26.6118C37.693 26.6118 38.1585 26.7028 38.5986 26.8848C39.0387 27.0625 39.4281 27.3418 39.7666 27.7227C40.1094 28.0993 40.3781 28.5838 40.5728 29.1763C40.7674 29.7645 40.8647 30.4733 40.8647 31.3027V31.3154C40.8647 32.3438 40.7166 33.224 40.4204 33.9561C40.1242 34.6882 39.6989 35.251 39.1445 35.6445C38.5944 36.0339 37.9364 36.2285 37.1704 36.2285C36.6076 36.2285 36.0998 36.127 35.647 35.9238C35.1984 35.7165 34.826 35.4329 34.5298 35.0732C34.2378 34.7093 34.041 34.2946 33.9395 33.8291L33.9268 33.7593H35.5327L35.5581 33.8228C35.6385 34.0343 35.7528 34.2205 35.9009 34.3813C36.0532 34.5422 36.2352 34.667 36.4468 34.7559C36.6626 34.8405 36.9038 34.8828 37.1704 34.8828C37.6528 34.8828 38.0464 34.741 38.3511 34.4575C38.66 34.1698 38.8906 33.7868 39.043 33.3086C39.1995 32.8262 39.2884 32.293 39.3096 31.709C39.3138 31.6455 39.3159 31.5841 39.3159 31.5249C39.3159 31.4614 39.3159 31.4001 39.3159 31.3408L39.0303 29.811C39.0303 29.464 38.9499 29.1488 38.7891 28.8652C38.6283 28.5817 38.4103 28.3574 38.1353 28.1924C37.8644 28.0273 37.5576 27.9448 37.2148 27.9448C36.8848 27.9448 36.5822 28.0252 36.3071 28.186C36.0321 28.3468 35.812 28.5669 35.647 28.8462C35.4819 29.1213 35.3994 29.4302 35.3994 29.7729V29.7856C35.3994 30.1411 35.4777 30.4564 35.6343 30.7314C35.7909 31.0023 36.0046 31.216 36.2754 31.3726C36.5462 31.5291 36.8551 31.6074 37.2021 31.6074C37.5492 31.6074 37.8602 31.5312 38.1353 31.3789C38.4103 31.2266 38.6283 31.015 38.7891 30.7441C38.9499 30.4733 39.0303 30.1665 39.0303 29.8237V29.811H39.4111V31.4995H39.189C39.0789 31.7407 38.916 31.965 38.7002 32.1724C38.4844 32.3797 38.2178 32.5469 37.9004 32.6738C37.5872 32.8008 37.2191 32.8643 36.7959 32.8643C36.2119 32.8643 35.6956 32.7331 35.2471 32.4707C34.7985 32.2083 34.4451 31.8486 34.187 31.3916C33.9331 30.9346 33.8062 30.4183 33.8062 29.8428V29.8301C33.8062 29.208 33.95 28.6558 34.2378 28.1733C34.5298 27.6867 34.9318 27.3058 35.4438 27.0308C35.9601 26.7515 36.5462 26.6118 37.2021 26.6118ZM43.7466 34.7686C43.4588 34.7686 43.2176 34.6733 43.0229 34.4829C42.8325 34.2882 42.7373 34.0513 42.7373 33.772C42.7373 33.4884 42.8325 33.2515 43.0229 33.061C43.2176 32.8664 43.4588 32.769 43.7466 32.769C44.0386 32.769 44.2798 32.8664 44.4702 33.061C44.6606 33.2515 44.7559 33.4884 44.7559 33.772C44.7559 34.0513 44.6606 34.2882 44.4702 34.4829C44.2798 34.6733 44.0386 34.7686 43.7466 34.7686ZM43.7466 30.0586C43.4588 30.0586 43.2176 29.9634 43.0229 29.7729C42.8325 29.5783 42.7373 29.3413 42.7373 29.062C42.7373 28.7785 42.8325 28.5415 43.0229 28.3511C43.2176 28.1564 43.4588 28.0591 43.7466 28.0591C44.0386 28.0591 44.2798 28.1564 44.4702 28.3511C44.6606 28.5415 44.7559 28.7785 44.7559 29.062C44.7559 29.3413 44.6606 29.5783 44.4702 29.7729C44.2798 29.9634 44.0386 30.0586 43.7466 30.0586ZM51.0718 36V34.2417H46.5903V32.9023C46.8315 32.4919 47.0728 32.0793 47.314 31.6646C47.5594 31.2498 47.807 30.8372 48.0566 30.4268C48.3105 30.012 48.5623 29.6037 48.812 29.2017C49.0659 28.7954 49.3177 28.3955 49.5674 28.002C49.8213 27.6042 50.0752 27.217 50.3291 26.8403H52.6333V32.8896H53.8711V34.2417H52.6333V36H51.0718ZM48.1138 32.9277H51.0972V28.1479H51.002C50.8158 28.4357 50.6232 28.7319 50.4243 29.0366C50.2297 29.3413 50.0329 29.6523 49.834 29.9697C49.6351 30.2871 49.4383 30.6066 49.2437 30.9282C49.049 31.2456 48.8564 31.5651 48.666 31.8867C48.4756 32.2041 48.2915 32.5194 48.1138 32.8325V32.9277ZM57.6606 36V28.4526H57.5464L55.2676 30.0586V28.5225L57.6606 26.8403H59.292V36H57.6606Z" fill="#1C1C1C"/>
</g>
<rect x="4" y="4" width="263" height="561" rx="29" stroke="#1C1C1C" stroke-width="8"/>
<defs>
<clipPath id="clip0_401_1168">
<rect x="8" y="8" width="255" height="553" rx="25" fill="white"/>
</clipPath>
</defs>
</svg>
