<svg width="150" height="48" viewBox="0 0 150 48" fill="none" xmlns="http://www.w3.org/2000/svg">
<rect x="0.5" y="0.5" width="149" height="47" rx="5.5" fill="#F0E8E0" stroke="#1C1C1C"/>
<path d="M50.358 34.153C47.077 34.153 44.425 31.535 44.425 28.05C44.425 24.548 47.077 21.947 50.63 21.947C53.027 21.947 54.999 23.12 55.968 24.922L53.673 26.095C53.044 25.058 51.905 24.463 50.63 24.463C48.726 24.463 47.06 25.84 47.06 28.05C47.06 30.26 48.658 31.637 50.63 31.637C52.16 31.637 53.367 30.974 53.945 29.529H50.732V27.234H56.427V34H53.962V32.844C53.248 33.609 52.007 34.153 50.358 34.153ZM62.3943 34.17C59.7083 34.17 57.5323 32.351 57.5323 29.546C57.5323 26.741 59.7083 24.922 62.3943 24.922C65.0803 24.922 67.2563 26.741 67.2563 29.546C67.2563 32.351 65.0803 34.17 62.3943 34.17ZM60.0483 29.546C60.0483 30.838 61.0343 31.841 62.3943 31.841C63.7543 31.841 64.7403 30.838 64.7403 29.546C64.7403 28.254 63.7543 27.251 62.3943 27.251C61.0343 27.251 60.0483 28.254 60.0483 29.546ZM72.6295 34.17C69.9435 34.17 67.7675 32.351 67.7675 29.546C67.7675 26.741 69.9435 24.922 72.6295 24.922C75.3155 24.922 77.4915 26.741 77.4915 29.546C77.4915 32.351 75.3155 34.17 72.6295 34.17ZM70.2835 29.546C70.2835 30.838 71.2695 31.841 72.6295 31.841C73.9895 31.841 74.9755 30.838 74.9755 29.546C74.9755 28.254 73.9895 27.251 72.6295 27.251C71.2695 27.251 70.2835 28.254 70.2835 29.546ZM82.6097 35.683C84.2757 35.683 85.0237 34.629 85.0237 33.541V32.946C84.5137 33.524 83.5957 33.983 82.3377 33.983C80.0767 33.983 78.0027 32.368 78.0027 29.461C78.0027 26.656 80.0767 24.922 82.3377 24.922C83.5957 24.922 84.5137 25.466 85.0237 26.129V25.075H87.4887V33.218C87.4887 35.683 86.0267 38.046 82.6097 38.046C80.5187 38.046 78.8527 36.907 78.2067 35.309L80.2637 34.204C80.6887 35.19 81.6067 35.683 82.6097 35.683ZM80.5187 29.461C80.5187 30.753 81.4707 31.671 82.7797 31.671C84.1057 31.671 85.0407 30.753 85.0407 29.461C85.0407 28.169 84.1057 27.251 82.7797 27.251C81.4707 27.251 80.5187 28.169 80.5187 29.461ZM89.1815 34V21.42H91.6465V34H89.1815ZM97.4885 34.153C94.4625 34.153 92.7455 32.096 92.7455 29.546C92.7455 26.962 94.6835 24.922 97.4885 24.922C100.464 24.922 102.045 27.217 102.045 29.546V30.447H95.2615C95.5845 31.501 96.4515 31.994 97.4885 31.994C98.8485 31.994 99.5795 31.246 99.8005 30.787L101.671 31.909C101.331 32.674 100.022 34.153 97.4885 34.153ZM95.3125 28.509H99.4775C99.4095 27.982 98.8315 27.03 97.4545 27.03C96.5705 27.03 95.6695 27.506 95.3125 28.509ZM106.282 34V22.1H111.008C113.626 22.1 115.275 23.817 115.275 25.857C115.275 28.441 113.626 30.022 111.008 30.022H108.832V34H106.282ZM108.832 27.727H111.008C112.011 27.727 112.725 27.03 112.725 26.061C112.725 25.092 112.011 24.395 111.008 24.395H108.832V27.727ZM116.459 34V21.42H118.924V34H116.459ZM123.253 34.17C121.536 34.17 120.21 33.065 120.21 31.382C120.21 29.716 121.366 28.662 123.355 28.543L125.667 28.407V28.356C125.667 27.897 125.106 27.149 124.018 27.149C122.828 27.149 122.335 27.88 122.165 28.356L120.193 27.336C120.822 25.942 122.08 24.922 124.086 24.922C126.925 24.922 128.149 26.996 128.149 28.628V34H125.667V33.116C125.276 33.745 124.426 34.17 123.253 34.17ZM122.726 31.263C122.726 31.722 123.1 31.994 123.678 31.994C124.477 31.994 125.701 31.501 125.701 30.464V30.396L123.525 30.532C123.032 30.566 122.726 30.855 122.726 31.263ZM130.63 37.893L132.279 33.932L128.76 25.075H131.582L133.741 31.127L135.764 25.075H138.654L133.554 37.893H130.63Z" fill="#1C1C1C"/>
<path d="M44.72 18V11.7H46.943C48.914 11.7 50.291 12.96 50.291 14.85C50.291 16.605 48.914 18 46.943 18H44.72ZM46.052 16.812H46.952C48.041 16.812 48.896 16.119 48.896 14.85C48.896 13.59 48.041 12.888 46.952 12.888H46.052V16.812ZM50.9087 18V13.275H52.2137V18H50.9087ZM50.7377 11.808C50.7377 11.34 51.0887 11.007 51.5567 11.007C52.0247 11.007 52.3757 11.34 52.3757 11.808C52.3757 12.276 52.0247 12.609 51.5567 12.609C51.0887 12.609 50.7377 12.276 50.7377 11.808ZM54.9538 18.081C53.7658 18.081 53.0818 17.478 52.8298 16.794L53.9098 16.281C54.0718 16.623 54.4408 16.938 55.0258 16.938C55.5208 16.938 55.7638 16.794 55.7638 16.605C55.7638 16.443 55.6198 16.344 55.3768 16.299L54.4228 16.119C53.7388 15.993 53.0818 15.624 53.0818 14.706C53.0818 13.77 53.9638 13.194 55.0258 13.194C56.2048 13.194 56.8078 13.77 57.0148 14.409L55.9618 14.913C55.8898 14.607 55.5208 14.319 54.9988 14.319C54.6388 14.319 54.3868 14.454 54.3868 14.652C54.3868 14.841 54.5578 14.922 54.8008 14.967L55.7638 15.147C56.6368 15.309 57.0958 15.858 57.0958 16.524C57.0958 17.397 56.3758 18.081 54.9538 18.081ZM57.7746 20.061V13.275H59.0796V13.797C59.3496 13.446 59.9346 13.194 60.5466 13.194C61.7796 13.194 62.8866 14.094 62.8866 15.633C62.8866 17.118 61.7796 18.081 60.5466 18.081C59.9346 18.081 59.3496 17.829 59.0796 17.478V20.061H57.7746ZM59.0706 15.633C59.0706 16.317 59.5926 16.848 60.3126 16.848C61.0506 16.848 61.5546 16.317 61.5546 15.633C61.5546 14.949 61.0506 14.418 60.3126 14.418C59.5926 14.418 59.0706 14.949 59.0706 15.633ZM65.7313 18.09C64.3093 18.09 63.1573 17.127 63.1573 15.642C63.1573 14.157 64.3093 13.194 65.7313 13.194C67.1533 13.194 68.3053 14.157 68.3053 15.642C68.3053 17.127 67.1533 18.09 65.7313 18.09ZM64.4893 15.642C64.4893 16.326 65.0113 16.857 65.7313 16.857C66.4513 16.857 66.9733 16.326 66.9733 15.642C66.9733 14.958 66.4513 14.427 65.7313 14.427C65.0113 14.427 64.4893 14.958 64.4893 15.642ZM68.981 18V13.275H70.286V13.851C70.493 13.491 70.952 13.194 71.537 13.194C72.581 13.194 73.238 13.959 73.238 14.832V18H71.933V15.291C71.933 14.787 71.564 14.454 71.114 14.454C70.592 14.454 70.286 14.823 70.286 15.291V18H68.981ZM74.1698 18V13.275H75.4748V18H74.1698ZM73.9988 11.808C73.9988 11.34 74.3498 11.007 74.8178 11.007C75.2858 11.007 75.6368 11.34 75.6368 11.808C75.6368 12.276 75.2858 12.609 74.8178 12.609C74.3498 12.609 73.9988 12.276 73.9988 11.808ZM79.268 18.081C78.656 18.081 78.071 17.829 77.801 17.478V18H76.496V11.34H77.801V13.797C78.071 13.446 78.656 13.194 79.268 13.194C80.501 13.194 81.608 14.157 81.608 15.642C81.608 17.181 80.501 18.081 79.268 18.081ZM77.792 15.642C77.792 16.326 78.314 16.857 79.034 16.857C79.772 16.857 80.276 16.326 80.276 15.642C80.276 14.958 79.772 14.427 79.034 14.427C78.314 14.427 77.792 14.958 77.792 15.642ZM82.1938 18V11.34H83.4988V18H82.1938ZM86.5916 18.081C84.9896 18.081 84.0806 16.992 84.0806 15.642C84.0806 14.274 85.1066 13.194 86.5916 13.194C88.1666 13.194 89.0036 14.409 89.0036 15.642V16.119H85.4126C85.5836 16.677 86.0426 16.938 86.5916 16.938C87.3116 16.938 87.6986 16.542 87.8156 16.299L88.8056 16.893C88.6256 17.298 87.9326 18.081 86.5916 18.081ZM85.4396 15.093H87.6446C87.6086 14.814 87.3026 14.31 86.5736 14.31C86.1056 14.31 85.6286 14.562 85.4396 15.093ZM92.8758 18.081C91.6878 18.081 91.0038 17.478 90.7518 16.794L91.8318 16.281C91.9938 16.623 92.3628 16.938 92.9478 16.938C93.4428 16.938 93.6858 16.794 93.6858 16.605C93.6858 16.443 93.5418 16.344 93.2988 16.299L92.3448 16.119C91.6608 15.993 91.0038 15.624 91.0038 14.706C91.0038 13.77 91.8858 13.194 92.9478 13.194C94.1268 13.194 94.7298 13.77 94.9368 14.409L93.8838 14.913C93.8118 14.607 93.4428 14.319 92.9208 14.319C92.5608 14.319 92.3088 14.454 92.3088 14.652C92.3088 14.841 92.4798 14.922 92.7228 14.967L93.6858 15.147C94.5588 15.309 95.0178 15.858 95.0178 16.524C95.0178 17.397 94.2978 18.081 92.8758 18.081ZM97.3076 18.081C96.2636 18.081 95.6066 17.28 95.6066 16.344V13.275H96.9116V15.984C96.9116 16.488 97.2806 16.821 97.7306 16.821C98.2526 16.821 98.5586 16.452 98.5586 15.984V13.275H99.8636V17.073L100.188 18H98.7206L98.5586 17.514C98.3516 17.793 97.9286 18.081 97.3076 18.081ZM100.904 18V13.275H102.227V14.058L103.829 13.167V14.553L102.227 15.381V18H100.904Z" fill="#1C1C1C"/>
<g clip-path="url(#clip0_434_3176)">
<path d="M24.5506 23.6701L27.2706 20.9272L18.0115 15.6797C17.6571 15.4776 17.3035 15.3757 16.9686 15.3757C16.7722 15.3757 16.5861 15.431 16.4076 15.5036L24.5506 23.6701ZM30.9689 23.025L28.3169 21.5222L25.3819 24.5035L28.3356 27.4658L30.9689 25.9726C31.6115 25.6081 31.966 25.0865 31.966 24.5001C31.966 23.9128 31.6115 23.3894 30.9689 23.025ZM24.5302 25.368L16.496 33.5285C16.9703 33.6909 17.4879 33.6175 18.0107 33.3195L27.2315 28.0919L24.5302 25.368ZM15.595 16.356C15.4899 16.6134 15.435 16.8891 15.4335 17.1678V31.8289C15.4335 32.1458 15.5015 32.4265 15.6111 32.6821L23.6989 24.5294L15.595 16.3542V16.356Z" fill="#1C1C1C"/>
</g>
<defs>
<clipPath id="clip0_434_3176">
<rect width="17" height="19" fill="white" transform="translate(15 15)"/>
</clipPath>
</defs>
</svg>
