<svg width="113" height="74" viewBox="0 0 113 74" fill="none" xmlns="http://www.w3.org/2000/svg">
<g id="Sunity">
<path id="Sun" d="M-21 66.7364C-21 103.302 8.99692 132.945 46 132.945C83.0031 132.945 113 103.302 113 66.7364C113 30.1707 83.0031 0.52832 46 0.52832C8.99692 0.52832 -21 30.1707 -21 66.7364Z" fill="black" fill-opacity="0.05"/>
<path id="Line (Stroke)" fill-rule="evenodd" clip-rule="evenodd" d="M97.7976 54.9219L96.4533 56.4511C94.7837 58.3506 93.1741 59.0817 91.5972 59.0817C90.0204 59.0817 88.4108 58.3506 86.7412 56.4511L85.3969 54.9219L82.3915 57.6578L83.7357 59.187C85.9507 61.7069 88.5803 63.1853 91.5972 63.1853C94.6142 63.1853 97.2438 61.7068 99.4587 59.187L100.803 57.6578L97.7976 54.9219Z" fill="#4E4E4E" fill-opacity="0.2"/>
<path id="Line (Stroke)_2" fill-rule="evenodd" clip-rule="evenodd" d="M68.9504 54.9219L67.6062 56.4511C65.9365 58.3506 64.3269 59.0817 62.7501 59.0817C61.1733 59.0817 59.5637 58.3506 57.894 56.4511L56.5498 54.9219L53.5443 57.6578L54.8886 59.187C57.1035 61.7068 59.7331 63.1853 62.7501 63.1853C65.767 63.1853 68.3966 61.7068 70.6116 59.187L71.9558 57.6578L68.9504 54.9219Z" fill="#4E4E4E" fill-opacity="0.2"/>
</g>
</svg>
