<svg width="44" height="48" viewBox="0 0 44 48" fill="none" xmlns="http://www.w3.org/2000/svg">
<g id="Illu">
<g id="Group">
<path id="Vector" d="M40.6534 20.0818H23.8662L27.9358 7.38962C28.6989 4.68916 25.6467 2.52879 23.6119 4.68916L3.26386 26.2929C1.73776 27.9131 2.75516 30.8836 5.04431 30.8836H21.8314L17.7618 43.5758C16.9988 46.2763 20.051 48.4367 22.0858 46.2763L42.4338 24.6726C43.9599 23.0523 42.9425 20.0818 40.6534 20.0818Z" fill="#1C1C1C"/>
</g>
<g id="Group_2">
<path id="Vector_2" d="M38.1151 16.2744H21.328L25.3976 3.58225C26.1607 0.881784 23.1085 -1.27859 21.0737 0.881784L0.725652 22.4855C-0.80045 24.1058 0.216951 27.0763 2.5061 27.0763H19.2932L15.2236 39.7685C14.4606 42.4689 17.5128 44.6293 19.5476 42.4689L39.8956 20.8652C41.4217 19.2449 40.4043 16.2744 38.1151 16.2744Z" fill="#FFD51C"/>
</g>
</g>
</svg>
