<svg width="48" height="48" viewBox="0 0 48 48" fill="none" xmlns="http://www.w3.org/2000/svg">
<g id="Battery">
<g id="Group">
<path id="Vector" d="M31.5 4.5H16.5V1.5C16.5 1.10218 16.658 0.720644 16.9393 0.43934C17.2206 0.158035 17.6022 0 18 0L30 0C30.3978 0 30.7794 0.158035 31.0607 0.43934C31.342 0.720644 31.5 1.10218 31.5 1.5V4.5Z" fill="white"/>
<path id="Vector_2" d="M37.5 7.5H10.5C9.70435 7.5 8.94129 7.81607 8.37868 8.37868C7.81607 8.94129 7.5 9.70435 7.5 10.5V45C7.5 45.7957 7.81607 46.5587 8.37868 47.1213C8.94129 47.6839 9.70435 48 10.5 48H37.5C38.2956 48 39.0587 47.6839 39.6213 47.1213C40.1839 46.5587 40.5 45.7957 40.5 45V10.5C40.5 9.70435 40.1839 8.94129 39.6213 8.37868C39.0587 7.81607 38.2956 7.5 37.5 7.5ZM33 40.5H15V37.5H33V40.5ZM33 33H15V30H33V33ZM33 25.5H15V22.5H33V25.5Z" fill="white"/>
</g>
</g>
</svg>
